<svg xmlns="http://www.w3.org/2000/svg" width="1600" height="900" viewBox="0 0 1600 900" fill="none">
  <rect width="1600" height="900" fill="#0E0D16"/>
  <rect x="36" y="36" width="1528" height="828" rx="24" fill="#171327" stroke="#3A2D63"/>
  <text x="90" y="120" fill="#F6F2FF" font-size="44" font-family="Onest, Arial, sans-serif" font-weight="700">SLA Escalation Flow</text>
  <text x="90" y="165" fill="#B3A9D3" font-size="24" font-family="Onest, Arial, sans-serif">Priority routing, response windows, escalation owners (demo artifact)</text>
  <rect x="90" y="230" width="360" height="170" rx="18" fill="#211A38" stroke="#5A4896"/>
  <rect x="620" y="230" width="360" height="170" rx="18" fill="#211A38" stroke="#5A4896"/>
  <rect x="1150" y="230" width="360" height="170" rx="18" fill="#211A38" stroke="#5A4896"/>
  <rect x="90" y="520" width="360" height="170" rx="18" fill="#211A38" stroke="#5A4896"/>
  <rect x="620" y="520" width="360" height="170" rx="18" fill="#211A38" stroke="#5A4896"/>
  <rect x="1150" y="520" width="360" height="170" rx="18" fill="#211A38" stroke="#5A4896"/>
  <text x="120" y="290" fill="#EFE9FF" font-size="26" font-family="JetBrains Mono, monospace">P1 Critical</text>
  <text x="120" y="330" fill="#FCA5A5" font-size="22" font-family="Onest, Arial, sans-serif">Response: 15 min</text>
  <text x="120" y="365" fill="#FCA5A5" font-size="22" font-family="Onest, Arial, sans-serif">Recovery: 4 h</text>
  <text x="650" y="290" fill="#EFE9FF" font-size="26" font-family="JetBrains Mono, monospace">P2 High</text>
  <text x="650" y="330" fill="#FCD34D" font-size="22" font-family="Onest, Arial, sans-serif">Response: 1 h</text>
  <text x="650" y="365" fill="#FCD34D" font-size="22" font-family="Onest, Arial, sans-serif">Recovery: 8 h</text>
  <text x="1180" y="290" fill="#EFE9FF" font-size="26" font-family="JetBrains Mono, monospace">P3 Normal</text>
  <text x="1180" y="330" fill="#93C5FD" font-size="22" font-family="Onest, Arial, sans-serif">Response: 4 h</text>
  <text x="1180" y="365" fill="#93C5FD" font-size="22" font-family="Onest, Arial, sans-serif">Recovery: 24 h</text>
  <text x="120" y="580" fill="#EFE9FF" font-size="24" font-family="Onest, Arial, sans-serif">L1 Support Intake</text>
  <text x="120" y="620" fill="#B3A9D3" font-size="20" font-family="Onest, Arial, sans-serif">Ticket triage and incident class</text>
  <text x="650" y="580" fill="#EFE9FF" font-size="24" font-family="Onest, Arial, sans-serif">L2 Engineering</text>
  <text x="650" y="620" fill="#B3A9D3" font-size="20" font-family="Onest, Arial, sans-serif">Investigation and mitigation</text>
  <text x="1180" y="580" fill="#EFE9FF" font-size="24" font-family="Onest, Arial, sans-serif">L3 Escalation</text>
  <text x="1180" y="620" fill="#B3A9D3" font-size="20" font-family="Onest, Arial, sans-serif">On-call lead and stakeholders</text>
  <line x1="450" y1="315" x2="620" y2="315" stroke="#8B7EC4" stroke-width="6"/>
  <line x1="980" y1="315" x2="1150" y2="315" stroke="#8B7EC4" stroke-width="6"/>
  <line x1="270" y1="400" x2="270" y2="520" stroke="#8B7EC4" stroke-width="6"/>
  <line x1="800" y1="400" x2="800" y2="520" stroke="#8B7EC4" stroke-width="6"/>
  <line x1="1330" y1="400" x2="1330" y2="520" stroke="#8B7EC4" stroke-width="6"/>
</svg>
