<svg width="226" height="48" viewBox="0 0 226 48" fill="none" xmlns="http://www.w3.org/2000/svg"><title>Microsoft</title><path opacity="0.9" d="M32.3782 45.6002H11.8518V25.0729H32.3782V45.6002ZM55.0432 45.6002H34.5168V25.0729H55.0432V45.6002ZM117.592 17.9371C118.371 17.9372 119.192 18.0249 120.031 18.1989C120.873 18.3733 121.552 18.6039 122.05 18.8824L122.109 18.9156V23.1276L121.926 22.9948C120.604 22.0356 119.206 21.5504 117.772 21.5504C116.095 21.5504 114.718 22.1183 113.679 23.2389C112.637 24.3629 112.109 25.8867 112.109 27.7672C112.109 29.6358 112.616 31.1208 113.615 32.1783C114.613 33.2344 115.987 33.7701 117.699 33.7701C118.316 33.7701 119.019 33.634 119.79 33.3649C120.563 33.0956 121.282 32.7219 121.925 32.2535L122.109 32.1198V36.1168L122.051 36.15C120.632 36.9676 118.861 37.3824 116.787 37.3824C115.011 37.3824 113.405 36.9917 112.017 36.2223C110.627 35.4519 109.528 34.3412 108.752 32.9215C107.977 31.504 107.584 29.8957 107.584 28.1432C107.584 26.1425 107.988 24.348 108.785 22.8121C109.586 21.2724 110.763 20.0607 112.285 19.2125C113.804 18.3664 115.59 17.9371 117.592 17.9371ZM164.735 17.9371C165.371 17.9371 166.103 18.013 166.91 18.1627C167.721 18.3134 168.389 18.4994 168.895 18.7164L168.964 18.7457V22.7799L168.784 22.6569C168.236 22.2836 167.578 21.9785 166.829 21.7506C166.081 21.5229 165.328 21.4069 164.592 21.4069C163.799 21.4069 163.166 21.5855 162.712 21.9371C162.261 22.2871 162.041 22.7199 162.041 23.2594C162.041 23.8678 162.219 24.3484 162.57 24.6881C162.933 25.0399 163.814 25.4975 165.19 26.0494C166.916 26.7455 168.153 27.5335 168.866 28.3912C169.584 29.256 169.948 30.3283 169.948 31.5787C169.948 33.312 169.272 34.7287 167.937 35.7916C166.61 36.8472 164.792 37.3824 162.534 37.3824C161.803 37.3824 160.96 37.285 160.033 37.0934C159.105 36.902 158.317 36.6582 157.692 36.3698L157.624 36.3385V32.0856L157.807 32.2174C158.562 32.7596 159.397 33.1825 160.281 33.4713C161.17 33.7645 161.983 33.9137 162.696 33.9137C164.616 33.9136 165.549 33.3064 165.549 32.0602C165.549 31.6229 165.457 31.2685 165.276 31.0094C165.089 30.7446 164.758 30.4723 164.292 30.2018C163.816 29.9258 163.065 29.5757 162.059 29.1617C160.862 28.6476 159.959 28.1422 159.374 27.6598C158.785 27.1734 158.341 26.5935 158.054 25.9352C157.769 25.2791 157.624 24.5052 157.624 23.6344C157.624 21.9591 158.296 20.5748 159.618 19.5192C160.933 18.4699 162.654 17.9372 164.735 17.9371ZM201.149 9.15393C202.171 9.15393 202.996 9.26406 203.603 9.48206L203.68 9.51038V13.2574L203.517 13.1852C202.867 12.8954 202.221 12.7478 201.597 12.7477C200.729 12.7477 200.047 13.0265 199.572 13.5748C199.092 14.1298 198.85 14.9621 198.85 16.0494V18.3844H205.401V14.193L205.483 14.1676L209.633 12.8981L209.782 12.8522V18.3844H214.201V21.943H209.782V30.7008C209.782 31.8232 209.984 32.6258 210.381 33.0846C210.774 33.5392 211.406 33.7701 212.261 33.7701C212.488 33.7701 212.782 33.7206 213.134 33.6217C213.484 33.5246 213.782 33.3936 214.022 33.234L214.201 33.1149V36.7067L214.144 36.7408C213.881 36.8916 213.434 37.0331 212.778 37.1744C212.133 37.312 211.501 37.3824 210.902 37.3824C207.252 37.3824 205.401 35.3938 205.401 31.4703V21.943H198.85V36.9352H194.432V21.943H191.355V18.3844H194.432V15.817C194.432 14.5271 194.717 13.3614 195.279 12.3522C195.842 11.3418 196.645 10.5465 197.667 9.98987C198.689 9.43402 199.86 9.15394 201.149 9.15393ZM146.305 17.9371C149.186 17.9371 151.472 18.7946 153.097 20.486C154.721 22.1765 155.544 24.5304 155.544 27.4801C155.544 30.4665 154.667 32.89 152.936 34.6803C151.204 36.4725 148.822 37.3815 145.858 37.3815C143.012 37.3814 140.713 36.5194 139.023 34.817C137.333 33.115 136.475 30.7793 136.475 27.8737C136.475 24.8159 137.353 22.3691 139.084 20.6012C140.816 18.8335 143.245 17.9372 146.305 17.9371ZM181.687 17.9371C184.568 17.9371 186.854 18.7946 188.479 20.486C190.103 22.1765 190.926 24.5304 190.926 27.4801C190.926 30.4664 190.049 32.8901 188.318 34.6803C186.586 36.4725 184.205 37.3815 181.24 37.3815C178.394 37.3815 176.094 36.5196 174.404 34.817C172.714 33.115 171.857 30.7781 171.857 27.8737C171.857 24.8159 172.735 22.3691 174.466 20.6012C176.198 18.8336 178.628 17.9371 181.687 17.9371ZM82.01 30.276L89.844 11.0504H96.0071V36.9342H91.554V17.0162H91.4104L83.5081 36.9342H80.3499L72.3215 17.0143H72.178V36.9342H67.9924V11.0504H74.4075L82.01 30.276ZM104.578 36.9342H100.215V18.3844H104.578V36.9342ZM134.413 18.0621C135.14 18.0622 135.715 18.1494 136.121 18.3219L136.193 18.3522V22.7516L136.009 22.6188C135.807 22.4731 135.464 22.3351 134.991 22.2076C134.514 22.0794 134.072 22.0143 133.679 22.0143C132.52 22.0144 131.57 22.5163 130.858 23.5055C130.136 24.5066 129.77 25.8317 129.77 27.4449V36.9342H125.406V18.3844H129.77V21.5973H129.816C130.223 20.5549 130.757 19.7187 131.494 19.109C132.335 18.4153 133.317 18.0621 134.413 18.0621ZM146.073 21.5504C144.493 21.5505 143.241 22.09 142.351 23.1539C141.454 24.225 141 25.7651 141 27.7321C141 29.6386 141.454 31.1386 142.35 32.191C143.24 33.2383 144.506 33.7701 146.109 33.7701C147.722 33.7701 148.954 33.2483 149.775 32.2213C150.601 31.1863 151.02 29.6389 151.02 27.6246C151.02 25.6347 150.574 24.107 149.697 23.0836C148.823 22.0658 147.603 21.5504 146.073 21.5504ZM181.454 21.5504C179.876 21.5504 178.624 22.09 177.733 23.1539C176.836 24.225 176.382 25.765 176.382 27.7321C176.382 29.6382 176.836 31.1386 177.732 32.191C178.623 33.2383 179.887 33.7701 181.49 33.7701C183.103 33.7701 184.337 33.2486 185.157 32.2213C185.983 31.1863 186.402 29.6388 186.402 27.6246C186.402 25.6347 185.956 24.107 185.078 23.0836C184.205 22.0657 182.986 21.5504 181.454 21.5504ZM32.3792 22.9274H11.8518V2.40002H32.3792V22.9274ZM55.0432 22.9274H34.5168V2.40002H55.0432V22.9274ZM102.442 10.4821C103.197 10.4821 103.835 10.7343 104.338 11.2311C104.842 11.7289 105.098 12.3342 105.098 13.0309C105.098 13.7413 104.835 14.3415 104.318 14.8151C103.803 15.2858 103.172 15.525 102.442 15.525C101.711 15.525 101.083 15.2864 100.574 14.8151C100.063 14.3422 99.8031 13.7413 99.803 13.0309C99.803 12.3091 100.066 11.6974 100.582 11.2115C101.097 10.7271 101.723 10.4821 102.442 10.4821Z" fill="white"></path></svg>