<svg width="220" height="48" viewBox="0 0 220 48" fill="none" xmlns="http://www.w3.org/2000/svg"><title>Cohere</title><mask id="mask0_266_151" style="mask-type:luminance" maskUnits="userSpaceOnUse" x="14" y="7" width="33" height="34"><path d="M46.6623 7.82404H14.6399V40.6571H46.6623V7.82404Z" fill="white"></path></mask><g mask="url(#mask0_266_151)"><path fill-rule="evenodd" clip-rule="evenodd" d="M25.0146 27.373C25.8765 27.373 27.591 27.3244 29.9609 26.3241C32.7225 25.1582 38.2171 23.042 42.1806 20.8682C44.9527 19.3478 46.1676 17.337 46.1676 14.6291C46.1678 10.8708 43.1963 7.82404 39.5308 7.82404H24.173C18.908 7.82404 14.6399 12.2002 14.6399 17.5985C14.6399 22.9968 18.6361 27.373 25.0146 27.373Z" fill="white"></path><path fill-rule="evenodd" clip-rule="evenodd" d="M27.6128 34.1081C27.6128 31.4619 29.1665 29.0761 31.5502 28.0617L36.3867 26.0037C41.2788 23.9219 46.6634 27.6081 46.6634 33.0389C46.6634 37.2466 43.3361 40.6571 39.2323 40.656L33.996 40.6545C30.4703 40.6537 27.6128 37.723 27.6128 34.1081Z" fill="white" fill-opacity="0.6"></path><path d="M20.1355 28.6589C17.1004 28.6589 14.6399 31.1817 14.6399 34.2936V35.0235C14.6399 38.1354 17.1003 40.6579 20.1354 40.6579C23.1704 40.6579 25.631 38.1354 25.631 35.0235V34.2936C25.631 31.1817 23.1706 28.6589 20.1355 28.6589Z" fill="white" fill-opacity="0.8"></path></g><path d="M68.2989 40.6505C73.0556 40.6505 77.2186 38.2118 78.8644 33.2883C79.1839 32.3024 78.7257 31.6472 77.8124 31.6472H76.0278C75.2048 31.6472 74.6562 32.0212 74.2883 32.8185C72.8717 35.6807 70.9032 36.7097 68.4345 36.7097C64.0424 36.7097 61.3445 33.5663 61.3445 28.3153C61.3445 23.0643 64.136 19.9209 68.3409 19.9209C70.9032 19.9209 73.0071 21.0459 74.3336 23.7194C74.7466 24.5168 75.2468 24.8906 76.0729 24.8906H77.8576C78.7708 24.8906 79.229 24.2819 78.9095 23.3885C76.9895 18.0415 72.6877 15.9802 68.2989 15.9802C61.6673 15.9802 56.7266 20.9996 56.7266 28.3153C56.7266 35.631 61.4381 40.6505 68.2989 40.6505ZM187.995 26.158C188.588 22.1709 191.241 19.686 194.856 19.686C198.471 19.686 201.168 22.2172 201.486 26.158H187.995ZM195.039 40.6505C199.247 40.6505 203.456 38.6354 205.515 34.0859C206.017 33.0071 205.559 32.2561 204.646 32.2561H202.955C202.133 32.2561 201.629 32.6299 201.215 33.3811C199.845 35.8659 197.466 36.8983 195.043 36.8983C190.88 36.8983 188.182 33.9898 187.862 29.255H204.65C205.562 29.255 206.16 28.7388 206.16 27.7529C205.976 20.3908 201.312 15.9835 194.862 15.9835C188.41 15.9835 183.29 20.768 183.29 28.3186C183.29 35.8692 188.276 40.6538 195.046 40.6538L195.039 40.6505ZM168.419 28.9275H169.929C170.843 28.9275 171.346 28.4113 171.485 27.4252C172.356 21.0889 175.974 20.2485 179.82 20.4371C180.644 20.4768 181.319 19.8283 181.319 18.9812V17.5287C181.319 16.5923 180.859 16.0265 179.946 15.9802C176.542 15.8478 173.505 17.0456 171.75 20.4371C171.653 20.6224 171.382 20.5728 171.359 20.3643L171.075 17.8066C170.985 16.8702 170.481 16.4004 169.565 16.4004H162.659C161.852 16.4004 161.194 17.0721 161.194 17.9026V18.7C161.194 19.5272 161.849 20.2022 162.659 20.2022H165.495C166.302 20.2022 166.96 20.8739 166.96 21.7044V27.4252C166.96 28.2524 167.616 28.9275 168.425 28.9275H168.419ZM162.246 40.1839H176.561C177.474 40.1839 178.025 39.6213 178.025 38.6817V37.8843C178.025 36.9479 177.478 36.382 176.561 36.382H172.901C171.988 36.382 171.436 35.8196 171.436 34.8799V32.2991C171.436 31.3627 170.888 30.797 169.971 30.797H168.416C167.503 30.797 166.951 31.3594 166.951 32.2991V34.8799C166.951 35.8163 166.402 36.382 165.486 36.382H162.239C161.326 36.382 160.774 36.9446 160.774 37.8843V38.6817C160.774 39.6181 161.323 40.1839 162.239 40.1839H162.246ZM140.153 26.1613C140.747 22.1742 143.4 19.6893 147.014 19.6893C150.628 19.6893 153.326 22.2205 153.646 26.1613H140.153ZM147.198 40.6538C151.406 40.6538 155.614 38.6386 157.673 34.0891C158.176 33.0104 157.718 32.2594 156.805 32.2594H155.114C154.291 32.2594 153.788 32.6333 153.375 33.3844C152.003 35.8692 149.625 36.9016 147.201 36.9016C143.038 36.9016 140.34 33.9931 140.021 29.2583H156.808C157.721 29.2583 158.318 28.7421 158.318 27.7561C158.134 20.3941 153.471 15.9868 147.02 15.9868C140.569 15.9868 135.448 20.7713 135.448 28.3219C135.448 35.8726 140.434 40.6571 147.204 40.6571L147.198 40.6538ZM94.2802 40.6538C101.141 40.6538 106.036 35.4491 106.036 28.3186C106.036 21.1882 101.141 15.9835 94.2802 15.9835C87.4194 15.9835 82.524 21.2841 82.524 28.3186C82.524 29.9597 82.7981 31.7895 83.6211 33.8046C84.0341 34.7906 84.8119 34.9295 85.6347 34.3208L86.9612 33.3348C87.6485 32.8185 87.8293 32.2098 87.6001 31.3197C87.2355 30.1484 87.1418 29.1161 87.1418 28.226C87.1418 23.3025 90.0237 19.9242 94.2769 19.9242C98.5302 19.9242 101.412 23.2529 101.412 28.3186C101.412 33.3844 98.5754 36.713 94.3673 36.713C92.9022 36.713 91.5307 36.4318 89.8848 35.1644C89.1974 34.602 88.5585 34.5094 87.826 35.0718L86.8192 35.8229C85.9962 36.4318 85.9059 37.2754 86.6803 37.9339C89.0587 39.9027 91.8018 40.6538 94.2738 40.6538H94.2802ZM111.842 40.1839H113.352C114.159 40.1839 114.817 39.5122 114.817 38.6817V27.4749C114.817 22.74 117.286 19.9242 121.13 19.9242C124.605 19.9242 126.619 22.2702 126.619 26.5848V38.6849C126.619 39.5122 127.274 40.1872 128.084 40.1872H129.639C130.446 40.1872 131.104 39.5155 131.104 38.6849V25.8338C131.104 19.504 127.948 15.9868 122.598 15.9868C118.954 15.9868 116.802 17.5155 115.195 19.643C115.072 19.8051 114.824 19.7158 114.824 19.514V9.32622C114.814 8.49572 114.159 7.82404 113.352 7.82404H111.842C111.035 7.82404 110.377 8.49572 110.377 9.32622V38.6817C110.377 39.5089 111.032 40.1839 111.842 40.1839Z" fill="white"></path></svg>