<svg width="210" height="48" viewBox="0 0 210 48" fill="none" xmlns="http://www.w3.org/2000/svg"><title>DeepSeek</title><path d="M65.4424 7.4232C64.8828 7.14899 64.6418 7.67156 64.3145 7.93703C64.2026 8.02267 64.1079 8.13397 64.0131 8.23672C63.1952 9.11021 62.2395 9.68421 60.9911 9.61558C59.1658 9.51274 57.6074 10.0867 56.2297 11.4828C55.937 9.76129 54.9641 8.73335 53.4832 8.074C52.7084 7.73135 51.9249 7.3887 51.3823 6.64352C51.0035 6.11268 50.9002 5.52167 50.7108 4.93921C50.5902 4.5881 50.4697 4.22825 50.065 4.16828C49.6259 4.09984 49.4536 4.46796 49.2814 4.77649C48.5927 6.03559 48.3258 7.42311 48.3515 8.82773C48.4118 11.9883 49.7464 14.5062 52.3982 16.2963C52.6995 16.5019 52.777 16.7073 52.6823 17.0073C52.5015 17.624 52.2862 18.2234 52.0969 18.8401C51.9763 19.2342 51.7954 19.3198 51.3736 19.1484C49.9185 18.5404 48.6614 17.641 47.5507 16.5533C45.6651 14.729 43.9604 12.7162 41.8338 11.1403C41.3344 10.7719 40.835 10.4295 40.3183 10.1038C38.1486 7.99701 40.6025 6.26675 41.1708 6.06135C41.7648 5.84721 41.3774 5.11049 39.4573 5.11923C37.5373 5.12769 35.7809 5.77012 33.5424 6.6266C33.2152 6.75511 32.8707 6.8492 32.5177 6.92629C30.4858 6.54096 28.3763 6.45514 26.1722 6.70369C22.0221 7.1661 18.7074 9.12751 16.2708 12.4764C13.3435 16.5019 12.6547 21.0755 13.4985 25.8462C14.3854 30.8737 16.951 35.0362 20.8945 38.2911C24.9842 41.6655 29.6939 43.3185 35.0665 43.0017C38.3297 42.8133 41.963 42.3765 46.0614 38.9077C47.0945 39.4217 48.1794 39.6271 49.9789 39.7812C51.3651 39.9097 52.6997 39.7128 53.7328 39.4987C55.3515 39.1561 55.2397 37.6572 54.6542 37.3832C49.9101 35.1735 50.9518 36.0727 50.0048 35.3447C52.4156 32.4926 56.049 29.529 57.4696 19.9277C57.5815 19.1656 57.4868 18.6858 57.4696 18.0692C57.461 17.6924 57.5471 17.5469 57.9776 17.5039C59.1658 17.3669 60.3195 17.0415 61.3786 16.4591C64.4523 14.7804 65.6921 12.0225 65.9848 8.71643C66.0279 8.21106 65.9762 7.68848 65.4424 7.4232ZM38.6568 37.1775C34.0591 33.5633 31.8292 32.3726 30.9079 32.424C30.0469 32.4754 30.2019 33.4604 30.3912 34.1029C30.5893 34.7365 30.8476 35.1735 31.2092 35.7301C31.4588 36.0984 31.6311 36.6464 30.9596 37.0577C29.4786 37.9742 26.9042 36.7493 26.7836 36.6894C23.7875 34.9249 21.2819 32.5952 19.5168 29.4093C17.812 26.3428 16.822 23.0541 16.6583 19.5424C16.6153 18.6946 16.8649 18.3946 17.7087 18.2406C18.8194 18.035 19.9646 17.9921 21.0752 18.1548C25.7678 18.8401 29.7627 20.9385 33.1119 24.2617C35.0233 26.1544 36.4698 28.4157 37.9594 30.6254C39.5435 32.9721 41.2483 35.2077 43.4181 37.0405C44.1843 37.6828 44.7956 38.171 45.3811 38.5309C43.6161 38.7278 40.6715 38.7708 38.6568 37.1775ZM40.8609 23.0027C40.8609 22.6258 41.1623 22.3261 41.5412 22.3261C41.6274 22.3261 41.7048 22.343 41.7737 22.3687C41.8685 22.4031 41.9546 22.4545 42.0234 22.5314C42.144 22.6514 42.2128 22.8226 42.2128 23.0026C42.2128 23.3794 41.9115 23.6791 41.5328 23.6791C41.154 23.6791 40.8609 23.3795 40.8609 23.0027ZM47.7059 26.5143C47.2668 26.6942 46.8277 26.8482 46.4058 26.8654C45.7514 26.8996 45.0368 26.6341 44.6494 26.3086C44.0468 25.8032 43.6162 25.5208 43.4354 24.6385C43.3579 24.2617 43.4009 23.6792 43.4699 23.3453C43.6249 22.6258 43.4526 22.1634 42.9447 21.7435C42.5314 21.4009 42.0062 21.3068 41.4293 21.3068C41.214 21.3068 41.0161 21.2125 40.8697 21.1354C40.6285 21.0156 40.4307 20.7158 40.62 20.3475C40.6803 20.2277 40.9731 19.9364 41.042 19.8851C41.8255 19.4396 42.7296 19.5853 43.5647 19.9193C44.3397 20.2362 44.9251 20.8186 45.7688 21.6408C46.6298 22.6342 46.7847 22.9086 47.2755 23.6535C47.6631 24.236 48.0161 24.8355 48.2571 25.5208C48.4035 25.949 48.2139 26.3002 47.7059 26.5143Z" fill="white"></path><path d="M125.073 18.0986C123.855 18.0986 122.627 18.3659 121.83 19.1185C121.76 19.1829 121.696 19.2522 121.631 19.3216H121.047V18.0986H117.844V37.3498H121.047V25.3871C121.047 24.1543 121.315 22.9164 122.057 22.1093C122.8 21.2973 123.939 21.0101 125.073 21.0101C126.202 21.0101 127.345 21.2973 128.088 22.1093C128.831 22.9164 129.098 24.1543 129.098 25.3871C129.098 26.6151 128.831 27.853 128.088 28.66C127.345 29.472 126.202 29.7592 125.073 29.7592H123.251V32.6707H125.073C126.959 32.6707 128.856 32.1904 130.094 30.8436C131.331 29.4968 131.772 27.437 131.772 25.387C131.772 23.3371 131.331 21.2724 130.094 19.9256C128.856 18.5788 126.959 18.0986 125.073 18.0986ZM80.3215 25.8921C80.3215 27.125 80.0542 28.3629 79.3114 29.17C78.5687 29.9771 77.4299 30.2692 76.296 30.2692C75.1622 30.2692 74.0233 29.977 73.2806 29.17C72.5379 28.3629 72.2706 27.125 72.2706 25.8921C72.2706 24.6642 72.5379 23.4214 73.2806 22.6143C74.0234 21.8072 75.1622 21.52 76.296 21.52H78.1181V18.6085H76.296C74.4095 18.6085 72.5131 19.0888 71.2752 20.4356C70.0374 21.7824 69.5967 23.8422 69.5967 25.8921C69.5967 27.9421 70.0374 30.0068 71.2752 31.3535C72.5131 32.7004 74.4095 33.1806 76.296 33.1806C77.5141 33.1806 78.7371 32.9083 79.5392 32.1607C79.6085 32.0963 79.6729 32.027 79.7323 31.9576H80.3215V33.1806H83.5251V13.9245H80.3215V25.8921ZM92.6407 18.0986C90.6799 18.0986 88.7092 18.5987 87.4218 19.99C86.1394 21.3814 85.6789 23.5155 85.6789 25.6396C85.6789 27.7589 86.1394 29.8979 87.4218 31.2892C88.7092 32.6806 90.6798 33.1807 92.6407 33.1807C94.6015 33.1807 96.5722 32.6806 97.8596 31.2892C98.5181 30.5713 98.9638 29.6602 99.2411 28.6502H96.0722C95.983 28.7838 95.884 28.9126 95.7751 29.0314C95.0027 29.8683 93.8192 30.1653 92.6409 30.1653C91.4674 30.1653 90.284 29.8683 89.5115 29.0314C88.7391 28.1946 88.4618 26.9122 88.4618 25.6397C88.4618 24.3673 88.7391 23.0848 89.5115 22.248C90.284 21.4112 91.4674 21.1141 92.6409 21.1141C93.8193 21.1141 95.0028 21.4112 95.7751 22.248C96.3099 22.8274 96.6069 23.6147 96.7406 24.4713H91.0762V26.8083H99.6075V25.6397C99.6075 23.5156 99.147 21.3815 97.8597 19.9901C96.5772 18.5988 94.6015 18.0986 92.6407 18.0986ZM108.723 18.0986C106.767 18.0986 104.791 18.5987 103.509 19.99C102.222 21.3814 101.761 23.5155 101.761 25.6396C101.761 27.7589 102.222 29.8979 103.509 31.2892C104.791 32.6806 106.767 33.1807 108.723 33.1807C110.684 33.1807 112.654 32.6806 113.942 31.2892C114.605 30.5713 115.046 29.6602 115.323 28.6502H112.154C112.065 28.7838 111.966 28.9126 111.857 29.0314C111.085 29.8683 109.902 30.1653 108.728 30.1653C107.55 30.1653 106.366 29.8683 105.594 29.0314C104.821 28.1946 104.544 26.9122 104.544 25.6397C104.544 24.3673 104.821 23.0848 105.594 22.248C106.366 21.4112 107.55 21.1141 108.728 21.1141C109.902 21.1141 111.085 21.4112 111.857 22.248C112.392 22.8274 112.689 23.6147 112.823 24.4713H107.158V26.8083H115.69V25.6397C115.69 23.5156 115.229 21.3815 113.942 19.9901C112.66 18.5988 110.684 18.0986 108.723 18.0986ZM146.107 25.392C144.824 24.5701 142.848 24.278 140.893 24.278H140.962C140.125 24.278 139.283 24.1641 138.734 23.8423C138.184 23.5254 137.991 23.0351 137.991 22.55C137.991 22.0648 138.184 21.5746 138.734 21.2577C139.283 20.9358 140.125 20.822 140.962 20.822C141.799 20.822 142.64 20.9408 143.185 21.2577C143.735 21.5746 143.933 22.0648 143.933 22.55H147.196C147.196 21.2973 146.775 20.0396 145.611 19.2177C144.448 18.3957 142.665 18.0987 140.893 18.0987C139.12 18.0987 137.337 18.3957 136.174 19.2177C135.01 20.0397 134.594 21.2973 134.594 22.55C134.594 23.8027 135.01 25.0653 136.174 25.8823C137.337 26.7042 139.12 27.0013 140.893 27.0013C141.814 27.0013 142.824 27.1151 143.428 27.432C144.037 27.7539 144.255 28.2441 144.255 28.7293C144.255 29.2146 144.037 29.7047 143.428 30.0216C142.824 30.3385 141.893 30.4523 140.967 30.4523C140.046 30.4523 139.115 30.3385 138.506 30.0216C137.902 29.6997 137.684 29.2145 137.684 28.7293H133.926C133.926 29.977 134.386 31.2397 135.674 32.0616C136.961 32.8836 138.932 33.1756 140.893 33.1756C142.848 33.1756 144.824 32.8835 146.107 32.0616C147.394 31.2396 147.854 29.977 147.854 28.7293C147.854 27.4766 147.394 26.214 146.107 25.392ZM156.975 18.0986C155.014 18.0986 153.043 18.5987 151.756 19.99C150.474 21.3814 150.008 23.5155 150.008 25.6396C150.008 27.7589 150.474 29.8979 151.756 31.2892C153.043 32.6806 155.014 33.1807 156.975 33.1807C158.936 33.1807 160.906 32.6806 162.194 31.2892C162.852 30.5713 163.298 29.6602 163.57 28.6502H160.406C160.317 28.7838 160.218 28.9126 160.109 29.0314C159.337 29.8683 158.153 30.1653 156.975 30.1653C155.801 30.1653 154.613 29.8683 153.845 29.0314C153.073 28.1946 152.796 26.9122 152.796 25.6397C152.796 24.3673 153.073 23.0848 153.845 22.248C154.613 21.4112 155.801 21.1141 156.975 21.1141C158.153 21.1141 159.337 21.4112 160.109 22.248C160.644 22.8274 160.941 23.6147 161.075 24.4713H155.405V26.8083H163.942V25.6397C163.942 23.5156 163.481 21.3815 162.194 19.9901C160.906 18.5988 158.936 18.0986 156.975 18.0986ZM173.057 18.0986C171.096 18.0986 169.126 18.5987 167.838 19.99C166.556 21.3814 166.091 23.5155 166.091 25.6396C166.091 27.7589 166.556 29.8979 167.838 31.2892C169.126 32.6806 171.096 33.1807 173.057 33.1807C175.018 33.1807 176.989 32.6806 178.276 31.2892C178.935 30.5713 179.38 29.6602 179.658 28.6502H176.489C176.4 28.7838 176.3 28.9126 176.192 29.0314C175.419 29.8683 174.236 30.1653 173.057 30.1653C171.884 30.1653 170.695 29.8683 169.928 29.0314C169.156 28.1946 168.878 26.9122 168.878 25.6397C168.878 24.3673 169.156 23.0848 169.928 22.248C170.695 21.4112 171.884 21.1141 173.057 21.1141C174.236 21.1141 175.419 21.4112 176.192 22.248C176.726 22.8274 177.023 23.6147 177.157 24.4713H171.493V26.8083H180.024V25.6397C180.024 23.5156 179.563 21.3815 178.276 19.9901C176.989 18.5988 175.018 18.0986 173.057 18.0986ZM182.173 13.2511H185.376V33.1807H182.173V13.2511ZM192.135 18.767L186.877 25.1891L192.135 33.1807H196.106L190.848 25.1891L196.106 18.767H192.135Z" fill="white"></path></svg>