<svg width="190" height="48" viewBox="0 0 190 48" fill="none" xmlns="http://www.w3.org/2000/svg"><title>AI21 Labs</title><path d="M34.5658 40.2781L33.3461 36.4212H22.0918L20.8716 40.2781H13.0559L24.3542 8.51953H31.088L42.5218 40.2781H34.5658ZM27.7439 17.5922L23.8571 30.6594H31.5401L27.7439 17.5922Z" fill="white"></path><path d="M43.3929 8.51953H50.8044V40.2781H43.3929V8.51953Z" fill="white"></path><path d="M52.8027 33.7898C53.1356 32.2217 53.7234 30.7194 54.5426 29.3432C55.2553 28.1805 56.1478 27.1389 57.1867 26.2581C58.2481 25.3741 59.3735 24.5706 60.5535 23.8541C61.487 23.3092 62.353 22.7873 63.1518 22.2886C63.8886 21.8346 64.591 21.3266 65.2533 20.7688C65.8254 20.2916 66.3075 19.7153 66.6771 19.0672C67.0299 18.4213 67.209 17.6941 67.1967 16.9575C67.1967 15.6873 66.8503 14.7723 66.1574 14.2126C65.4228 13.6394 64.5115 13.3424 63.5815 13.3732C62.5231 13.341 61.494 13.7235 60.7115 14.4396C59.9433 15.1505 59.5591 16.3378 59.5591 18.0013H52.2827C52.2697 16.6194 52.5232 15.248 53.0288 13.9626C53.5139 12.7398 54.2623 11.6397 55.2203 10.7413C56.2407 9.79981 57.4396 9.07458 58.7456 8.60894C60.2838 8.06949 61.9053 7.80822 63.5346 7.83726C64.9327 7.83078 66.3248 8.02177 67.6699 8.40461C68.921 8.75324 70.0944 9.33842 71.1271 10.1288C72.1417 10.9254 72.9546 11.9514 73.4995 13.1232C74.1152 14.4822 74.4165 15.9635 74.3808 17.4561C74.3971 18.7187 74.102 19.9657 73.5221 21.0861C72.9667 22.1518 72.2587 23.13 71.4206 23.9896C70.6024 24.8278 69.7017 25.5804 68.7321 26.2359C67.7669 26.8866 66.8931 27.4385 66.1106 27.8919C65.0251 28.6177 64.1287 29.2457 63.4215 29.775C62.8147 30.2155 62.2477 30.7089 61.7273 31.2491C61.3377 31.6504 61.0371 32.1298 60.8455 32.656C60.6709 33.198 60.5869 33.7651 60.597 34.3345H74.1553V40.278H52.1927C52.154 38.0992 52.3587 35.9229 52.8027 33.7898Z" fill="white"></path><path d="M75.5543 14.0963C76.8208 14.1222 78.0862 14.0081 79.3276 13.7559C80.1569 13.5978 80.9382 13.2484 81.6101 12.7352C82.1491 12.2861 82.5426 11.6858 82.7397 11.011C82.9656 10.1992 83.0722 9.35849 83.0558 8.51569H89.521V40.2777H82.0646V19.2702H75.5543V14.0963Z" fill="white"></path><path d="M97.9069 8.51953H104.82V40.2781H97.9069V8.51953Z" fill="white" fill-opacity="0.6"></path><path d="M130.349 18.3921V40.2617H123.435V37.1754C123.151 37.7067 122.785 38.189 122.35 38.6044C121.885 39.0529 121.361 39.4345 120.791 39.7385C120.181 40.0643 119.537 40.3223 118.871 40.5078C118.194 40.7018 117.495 40.8009 116.792 40.8025C115.307 40.8196 113.835 40.5179 112.476 39.918C111.202 39.355 110.057 38.5369 109.109 37.5138C108.151 36.4617 107.414 35.2273 106.94 33.8838C105.915 30.9308 105.915 27.717 106.94 24.7641C107.414 23.4207 108.151 22.1863 109.109 21.1341C110.057 20.111 111.202 19.293 112.476 18.7301C113.836 18.1306 115.307 17.8296 116.793 17.8474C117.496 17.849 118.195 17.9482 118.871 18.1421C119.541 18.3294 120.186 18.596 120.792 18.9364C121.363 19.2563 121.887 19.6531 122.351 20.1158C122.775 20.5328 123.14 21.006 123.436 21.5221V18.3921H130.349ZM118.238 34.9075C118.971 34.9188 119.697 34.7636 120.362 34.4542C120.978 34.1647 121.531 33.7563 121.99 33.2522C122.453 32.7353 122.813 32.1346 123.052 31.4824C123.309 30.7934 123.439 30.063 123.435 29.3274C123.446 27.8926 122.931 26.504 121.989 25.4252C121.535 24.9098 120.981 24.4929 120.361 24.2001C119.692 23.9012 118.969 23.7467 118.237 23.7467C117.505 23.7467 116.781 23.9012 116.113 24.2001C115.493 24.4931 114.939 24.91 114.485 25.4252C113.543 26.5044 113.029 27.8928 113.039 29.3274C113.035 30.063 113.164 30.7934 113.422 31.4824C113.661 32.1346 114.021 32.7353 114.484 33.2522C114.943 33.7561 115.496 34.1645 116.112 34.4542C116.778 34.764 117.504 34.9192 118.238 34.9075Z" fill="white" fill-opacity="0.6"></path><path d="M138.752 40.2781H131.837V8.51953H138.752V21.539C139.048 21.0229 139.413 20.5498 139.837 20.1327C140.305 19.6662 140.837 19.2691 141.417 18.9533C142.026 18.618 142.671 18.3516 143.338 18.159C144.021 17.962 144.729 17.8628 145.44 17.8643C146.925 17.8474 148.396 18.149 149.755 18.749C151.029 19.312 152.175 20.13 153.122 21.153C154.079 22.2054 154.817 23.4397 155.292 24.783C156.316 27.736 156.316 30.9498 155.292 33.9028C154.817 35.2461 154.079 36.4803 153.122 37.5328C152.175 38.5557 151.029 39.3738 149.755 39.9367C148.396 40.5369 146.925 40.8384 145.44 40.8215C144.729 40.823 144.021 40.7237 143.338 40.5268C142.674 40.336 142.03 40.0783 141.417 39.7575C140.839 39.4576 140.307 39.0756 139.837 38.6232C139.402 38.2078 139.036 37.7255 138.752 37.1943V40.2781ZM143.995 34.924C144.713 34.9319 145.424 34.777 146.074 34.4706C146.69 34.1811 147.243 33.7727 147.702 33.2686C148.165 32.7517 148.525 32.151 148.764 31.4988C149.021 30.8099 149.151 30.0795 149.147 29.3439C149.158 27.9092 148.643 26.5206 147.701 25.4417C147.247 24.9263 146.693 24.5094 146.073 24.2166C145.423 23.91 144.713 23.7542 143.995 23.7608C143.255 23.7516 142.522 23.9064 141.848 24.2142C141.22 24.5026 140.658 24.9199 140.199 25.4393C139.257 26.5181 138.742 27.9067 138.753 29.3414C138.749 30.0772 138.879 30.8075 139.136 31.4963C139.374 32.1489 139.735 32.7496 140.198 33.2661C140.662 33.7741 141.223 34.1829 141.847 34.4683C142.521 34.7774 143.254 34.9331 143.995 34.924Z" fill="white" fill-opacity="0.6"></path><path d="M169.051 27.3923C170.015 27.6642 170.919 27.9591 171.763 28.2768C172.552 28.5653 173.297 28.9624 173.977 29.4568C174.604 29.9197 175.121 30.5161 175.491 31.2035C175.895 32.0198 176.089 32.9241 176.056 33.8349C176.094 34.9803 175.828 36.1152 175.288 37.1245C174.774 38.0188 174.043 38.768 173.164 39.3026C172.196 39.8869 171.133 40.294 170.023 40.5045C168.765 40.7526 167.486 40.8739 166.204 40.8671C163.101 40.8671 160.653 40.1865 158.86 38.8255C157.067 37.4643 156.533 35.5133 156.533 32.9723H162.951C162.951 34.1224 163.274 34.9467 163.922 35.4451C164.651 35.9696 165.534 36.2332 166.43 36.1937C167.146 36.2246 167.857 36.06 168.487 35.7176C168.749 35.5551 168.962 35.3228 169.101 35.0466C169.241 34.7705 169.302 34.4608 169.277 34.1521C169.295 33.7814 169.175 33.4173 168.939 33.1315C168.642 32.8242 168.289 32.5775 167.899 32.4055C167.314 32.1339 166.71 31.9062 166.092 31.7247C165.353 31.4978 164.472 31.2181 163.448 30.8856C162.544 30.6133 161.686 30.3184 160.872 30.0009C160.109 29.7109 159.387 29.3219 158.725 28.8437C158.109 28.3917 157.606 27.8013 157.256 27.1195C156.868 26.2988 156.682 25.396 156.714 24.4877C156.714 22.2193 157.58 20.5407 159.312 19.4518C161.045 18.363 163.387 17.8181 166.34 17.8171C167.739 17.7936 169.133 17.9849 170.475 18.3845C171.55 18.7007 172.549 19.2331 173.413 19.9495C174.164 20.5926 174.759 21.3997 175.152 22.3092C175.546 23.2259 175.746 24.2145 175.74 25.2127H168.916C168.964 24.4449 168.713 23.6884 168.216 23.103C167.929 22.8353 167.591 22.6304 167.221 22.5015C166.851 22.3726 166.459 22.3225 166.069 22.3544C165.434 22.3388 164.807 22.504 164.261 22.8309C164.012 22.9831 163.808 23.2009 163.673 23.4607C163.537 23.7206 163.475 24.0127 163.493 24.3055C163.48 24.6658 163.61 25.0165 163.854 25.281C164.16 25.5821 164.521 25.821 164.917 25.9844C165.483 26.2327 166.064 26.4448 166.656 26.6195C167.349 26.8328 168.147 27.0902 169.051 27.3923Z" fill="white" fill-opacity="0.6"></path></svg>