<svg width="177" height="48" viewBox="0 0 177 48" fill="none" xmlns="http://www.w3.org/2000/svg"><title>OpenAI</title><path d="M68.7998 11.607C62.4143 11.607 57.1763 16.8315 57.1763 23.2305C57.1763 29.6295 62.4008 34.854 68.7998 34.854C75.1988 34.854 80.4233 29.6565 80.4233 23.2305C80.4233 16.8045 75.2123 11.607 68.7998 11.607ZM68.7998 30.6825C64.8308 30.6825 61.6313 27.429 61.6313 23.2305C61.6313 19.032 64.8308 15.765 68.7998 15.765C72.7688 15.765 75.9683 19.0185 75.9683 23.217C75.9683 27.4155 72.7688 30.6825 68.7998 30.6825Z" fill="white"></path><path d="M92.1549 18.06C90.0624 18.06 88.0239 18.897 86.9574 20.3145V18.384H82.7589V40.9695H86.9574V32.802C88.0239 34.125 89.9949 34.8405 92.1549 34.8405C96.6774 34.8405 100.228 31.29 100.228 26.4435C100.228 21.597 96.6774 18.06 92.1549 18.06ZM91.4529 31.1955C89.0634 31.1955 86.9304 29.319 86.9304 26.457C86.9304 23.595 89.0634 21.7185 91.4529 21.7185C93.8424 21.7185 95.9754 23.595 95.9754 26.457C95.9754 29.319 93.8424 31.1955 91.4529 31.1955Z" fill="white"></path><path d="M110.096 18.06C105.52 18.06 101.902 21.6375 101.902 26.457C101.902 31.2765 105.061 34.854 110.231 34.854C114.457 34.854 117.17 32.3025 118.007 29.427H113.903C113.39 30.615 111.932 31.4655 110.191 31.4655C108.031 31.4655 106.384 29.9535 105.992 27.78H118.196V26.133C118.196 21.732 115.132 18.06 110.096 18.06ZM106.033 24.7965C106.478 22.758 108.166 21.435 110.191 21.435C112.351 21.435 113.998 22.8525 114.187 24.7965H106.033Z" fill="white"></path><path d="M129.361 18.06C127.484 18.06 125.527 18.897 124.622 20.2875V18.384H120.424V34.5165H124.622V25.836C124.622 23.325 125.972 21.678 128.173 21.678C130.211 21.678 131.305 23.2305 131.305 25.3905V34.5165H135.503V24.702C135.503 20.706 133.046 18.06 129.361 18.06Z" fill="white"></path><path d="M146.236 11.931L137.11 34.5165H141.592L143.522 29.5755H153.917L155.848 34.5165H160.397L151.325 11.931H146.236ZM144.98 25.836L148.72 16.386L152.432 25.836H144.98Z" fill="white"></path><path d="M166.378 11.931H162.125V34.5165H166.391V11.931H166.378Z" fill="white"></path><path d="M25.3973 18.3705V13.875C25.3973 13.578 25.4783 13.362 25.7888 13.1865L34.1318 8.34C35.2523 7.692 36.6833 7.395 38.0738 7.395C43.3523 7.395 46.6868 11.4585 46.6868 15.8325C46.6868 16.1835 46.6868 16.656 46.6058 17.0475L37.8713 11.9445C37.4393 11.688 36.9668 11.6475 36.4403 11.9445L25.3973 18.3705ZM44.6888 34.341V24.351C44.6888 23.784 44.4728 23.406 43.9598 23.0955L32.8898 16.656L36.7778 14.4015C36.9938 14.2665 37.3448 14.2665 37.5608 14.4015L45.9578 19.248C48.3338 20.6385 49.9808 23.6625 49.9808 26.5515C49.9673 29.967 47.8883 33.126 44.6888 34.341ZM23.1023 25.728L19.2548 23.433C18.9578 23.2575 18.8633 23.0415 18.8633 22.7445V13.1055C18.8633 8.39399 22.4543 4.8435 27.3413 4.8435C29.2448 4.8435 31.0673 5.4915 32.5253 6.666L23.8448 11.715C23.3318 12.012 23.1158 12.4035 23.1158 12.9705V25.728H23.1023ZM30.6353 30.0615L25.3973 27.1185V20.895L30.6353 17.952L35.8193 20.895V27.1185L30.6353 30.0615ZM33.8753 43.1565C31.9718 43.1565 30.1493 42.5085 28.6913 41.334L37.3853 36.285C37.8983 35.988 38.1143 35.5965 38.1143 35.0295V22.272L42.0023 24.567C42.2993 24.7425 42.3938 24.9585 42.3938 25.2555V34.908C42.3938 39.6195 38.7623 43.1565 33.8753 43.1565ZM23.6693 33.5985L15.2723 28.752C12.8963 27.3615 11.2493 24.3375 11.2493 21.4485C11.2493 17.9925 13.3688 14.874 16.5683 13.659V23.6895C16.5683 24.2565 16.7843 24.6345 17.2973 24.945L28.3268 31.344L24.4388 33.5985C24.2363 33.7335 23.8853 33.7335 23.6693 33.5985ZM23.1428 40.605C18.1748 40.605 14.5298 36.879 14.5298 32.262C14.5298 31.83 14.5703 31.398 14.6108 31.0065L23.3048 36.0285C23.8178 36.3255 24.2498 36.3255 24.7763 36.0285L35.8058 29.6295V34.125C35.8058 34.422 35.7248 34.638 35.4143 34.8135L27.0848 39.66C25.9643 40.308 24.5333 40.605 23.1428 40.605ZM33.8753 45.492C39.0593 45.492 43.3928 41.766 44.3378 36.8385C49.1843 35.6235 52.3028 31.128 52.3028 26.538C52.3028 23.514 51.0068 20.6115 48.6308 18.492C48.8468 17.5875 49.0223 16.629 49.0223 15.7245C49.0223 9.62249 44.0543 5.046 38.3438 5.046C37.1693 5.046 36.0083 5.262 34.8878 5.6535C32.9303 3.7095 30.2843 2.508 27.3413 2.508C22.1573 2.508 17.8238 6.234 16.8788 11.1615C12.0323 12.3765 8.91376 16.872 8.91376 21.462C8.91376 24.486 10.2098 27.3885 12.5858 29.508C12.3698 30.4125 12.1943 31.371 12.1943 32.2755C12.1943 38.3775 17.1623 42.954 22.8728 42.954C24.0473 42.954 25.2083 42.738 26.3288 42.3465C28.2998 44.2905 30.9323 45.492 33.8753 45.492Z" fill="white"></path></svg>