<svg width="171" height="48" viewBox="0 0 171 48" fill="none" xmlns="http://www.w3.org/2000/svg"><title>Meta</title><path d="M14.3186 28.7248C14.3186 30.4714 14.702 31.8124 15.2031 32.6237C15.86 33.6863 16.8399 34.1364 17.8389 34.1364C19.1274 34.1364 20.3061 33.8167 22.5777 30.675C24.3975 28.1569 26.5418 24.6223 27.9846 22.4064L30.4279 18.6523C32.1253 16.0451 34.0898 13.1467 36.3423 11.1822C38.1812 9.57874 40.1648 8.68793 42.1612 8.68793C45.5128 8.68793 48.7054 10.6302 51.1488 14.273C53.8228 18.2625 55.1209 23.2877 55.1209 28.4734C55.1209 31.5563 54.5132 33.8215 53.4792 35.611C52.4802 37.3418 50.5332 39.0709 47.2579 39.0709V34.1364C50.0623 34.1364 50.7623 31.5595 50.7623 28.6102C50.7623 24.4075 49.7824 19.7435 47.6237 16.4109C46.0919 14.0471 44.1066 12.6027 41.9226 12.6027C39.5603 12.6027 37.6594 14.3843 35.5231 17.561C34.3873 19.2488 33.2213 21.3056 31.9121 23.6265L30.4709 26.1796C27.5758 31.3129 26.8424 32.4821 25.3949 34.4116C22.8577 37.7903 20.6911 39.0709 17.8389 39.0709C14.4554 39.0709 12.3159 37.6058 10.9908 35.3979C9.90911 33.5988 9.37781 31.2381 9.37781 28.5482L14.3186 28.7248Z" fill="white"></path><path d="M13.2734 14.6214C15.5386 11.1297 18.8076 8.68793 22.5569 8.68793C24.7283 8.68793 26.8869 9.33058 29.141 11.1711C31.6066 13.1833 34.2345 16.4968 37.513 21.9578L38.6885 23.9176C41.5264 28.6452 43.141 31.0775 44.0859 32.2244C45.3012 33.6974 46.1522 34.1364 47.2578 34.1364C50.0623 34.1364 50.7622 31.5595 50.7622 28.6102L55.1208 28.4734C55.1208 31.5563 54.5131 33.8215 53.4791 35.611C52.4802 37.3418 50.5331 39.0709 47.2578 39.0709C45.2217 39.0709 43.4178 38.6287 41.423 36.7468C39.8895 35.3024 38.0968 32.7366 36.7176 30.43L32.6151 23.5772C30.5567 20.138 28.6685 17.5737 27.5757 16.4125C26.4001 15.1638 24.889 13.6558 22.4774 13.6558C20.5256 13.6558 18.868 15.0254 17.4809 17.1204L13.2734 14.6214Z" fill="white"></path><path d="M22.4775 13.6558C20.5256 13.6558 18.8681 15.0254 17.481 17.1204C15.5196 20.0807 14.3186 24.4902 14.3186 28.7248C14.3186 30.4714 14.702 31.8124 15.2031 32.6237L10.9908 35.3979C9.90911 33.5988 9.37781 31.2381 9.37781 28.5482C9.37781 23.6567 10.7204 18.5584 13.2735 14.6214C15.5387 11.1297 18.8077 8.68793 22.557 8.68793L22.4775 13.6558Z" fill="white"></path><path d="M64.7256 9.64868H70.4411L80.1589 27.2294L89.8782 9.64868H95.4696V38.5364H90.8072V16.3966L82.2841 31.728H77.9096L69.388 16.3966V38.5364H64.7256V9.64868ZM110.079 20.4195C106.735 20.4195 104.721 22.9361 104.239 26.0523H115.588C115.354 22.8422 113.502 20.4195 110.079 20.4195ZM99.6167 27.8276C99.6167 21.2706 103.854 16.4984 110.16 16.4984C116.362 16.4984 120.066 21.2101 120.066 28.1775V29.458H104.239C104.801 32.8479 107.05 35.1322 110.677 35.1322C113.571 35.1322 115.379 34.2493 117.094 32.6347L119.571 35.6683C117.237 37.8142 114.269 39.0517 110.512 39.0517C103.686 39.0517 99.6167 34.0743 99.6167 27.8276ZM125.719 20.8331H121.427V17.0154H125.719V10.7017H130.218V17.0154H136.738V20.8331H130.218V30.5095C130.218 33.8135 131.274 34.9874 133.87 34.9874C135.055 34.9874 135.734 34.8856 136.738 34.7186V38.495C135.488 38.8481 134.295 39.0104 133.003 39.0104C128.146 39.0104 125.719 36.357 125.719 31.0456V20.8331ZM155.68 24.5459C154.777 22.2648 152.761 20.585 149.799 20.585C145.95 20.585 143.486 23.3162 143.486 27.7655C143.486 32.1034 145.754 34.9667 149.615 34.9667C152.65 34.9667 154.817 33.201 155.68 31.0042V24.5459ZM160.179 38.5364H155.763V35.5235C154.529 37.2972 152.283 39.0517 148.645 39.0517C142.794 39.0517 138.884 34.1539 138.884 27.7655C138.884 21.3167 142.888 16.4984 148.893 16.4984C151.861 16.4984 154.19 17.6851 155.763 19.78V17.0154H160.179V38.5364Z" fill="white"></path></svg>