<svg width="2500" height="1202" viewBox="0 0 2500 1202" fill="none" xmlns="http://www.w3.org/2000/svg">
<g clip-path="url(#clip0_14853_147)">
<path d="M664.5 217.1C638.9 105.5 575 14.8 566.4 0C552.5 20.8 501.7 100.9 475.5 189.8C447.4 288.8 443.3 376.7 453 463.3C462.7 549.9 499.1 638.7 499.1 638.7C518.6 685.4 547.7 735.4 566.6 760C594.4 723.9 658.3 616 678.3 475.3C689.5 397.1 689.8 328.6 664.5 217.1ZM566.4 732.2C553.9 708.6 534.4 663.7 532.5 594.2C531.9 527.1 558.9 469.7 566.7 457.7C573.6 469.7 597 519.7 599.8 588.2C601.4 655.4 579.1 708.1 566.4 732.2ZM657 406.4C656.2 448.9 651.2 493.9 644.5 520.7C647 474.4 641.4 409.2 630.6 358.2C620 307.3 590 222.2 565.8 182.8C543.6 220.3 516.3 293.9 501.9 357.7C487.7 421.6 487.2 498.9 487.2 522.1C483.3 502.6 473.9 432.9 476.6 362.9C478.8 305.1 492.2 245.8 499.7 218.5C528 127.3 560 69 565.8 59.7C571.9 69 612.2 140.7 633.1 216.1C653.9 291.6 658.1 363.8 657 406.4Z" fill="white"/>
<path d="M609.4 786H415.7V916C416 915.8 416.3 915.6 416.3 915.5C461.9 869.9 536.1 869.9 581.6 915.5C627.2 961.2 627.2 1035.2 581.6 1080.8C581.3 1081 581.3 1081.2 581 1081.3V1081.4C580.7 1081.6 580.4 1081.8 580.2 1082C534.9 1127.2 475.2 1149.8 415.7 1149.8C356 1149.8 296.2 1127 250.6 1081.4C170.4 1001 160.9 876.8 222 786C230.3 773.7 239.8 762.1 250.6 751.2C296.2 705.6 355.9 682.8 415.7 682.8V370.2C186.2 370.2 0 556.4 0 786C0 1015.6 186.2 1201.7 415.7 1201.7C535.5 1201.7 643.3 1151.1 719.2 1070.1V786H609.4ZM964.9 1127.6C964.9 1156.7 961.3 1201.8 902.9 1201.8H834C775.9 1201.8 772.3 1156.7 772.3 1127.6V860.3C772.3 831.2 775.9 786 834 786H902.9C961.3 786 964.9 831.1 964.9 860.3V919.1H881.5V851.3C881.5 844.2 876.2 837.7 868.4 837.7C863.7 837.7 855.3 840.6 855.3 851.3V1134.8C855.3 1145.5 863.6 1148.4 868.4 1148.4C876.2 1148.4 881.5 1141.9 881.5 1134.8V1043.8H869V998.1H964.9V1127.6ZM1089.9 1045.6L1104.1 837.8H1108.8L1123.2 1045.6H1089.9ZM997.9 1201.8H1079.3L1086.8 1091.4H1126L1133.8 1201.8H1215.2L1171.8 786.1H1041.2L997.9 1201.8ZM1246.1 1149.5L1325.9 837.8H1254.5V786H1411.2V837.7L1331.7 1148.4H1416.2V1201.7H1246.1V1149.5ZM1538.5 1008.6V837.6H1549.1C1558.3 837.6 1564.7 845.3 1564.7 858.4V987.8C1564.7 1000.9 1558.3 1008.6 1549.1 1008.6H1538.5ZM1455.1 1201.8H1538.5V1060.5H1586C1644.1 1060.5 1647.7 1015.4 1647.7 986.3V860.3C1647.7 831.2 1644.1 786 1586 786H1455.1V1201.8ZM1773.6 996.1V837.6H1784.4C1793.3 837.6 1799.7 845.3 1799.7 858.4V975.3C1799.7 988.4 1793.3 996.1 1784.4 996.1H1773.6ZM1893.6 1201.8L1852.7 1039.7C1882.2 1027.8 1882.7 1000.5 1882.7 989.2V860.3C1882.7 831.2 1879.4 786 1821 786H1690.4V1201.7H1773.5V1048H1779.6L1807.9 1201.8H1893.6ZM2047.6 1134.8C2047.6 1141.9 2042.3 1148.5 2034.5 1148.5C2029.8 1148.5 2021.4 1145.5 2021.4 1134.8V851.3C2021.4 840.6 2029.7 837.7 2034.5 837.7C2042.3 837.7 2047.6 844.2 2047.6 851.3V1134.8ZM1938.4 1127.6C1938.4 1156.7 1942 1201.8 2000.4 1201.8H2069C2127.4 1201.8 2131 1156.7 2131 1127.6V860.3C2131 831.2 2127.4 786 2069 786H2000.4C1942 786 1938.4 831.1 1938.4 860.3V1127.6ZM2391.9 786.1H2500V1201.8H2416.9V941.1H2413.8L2371 1201.8H2304.6L2261.8 941.1H2258.7V1201.8H2175.6V786.1H2283.7L2337.6 1078.3L2391.9 786.1Z" fill="white"/>
</g>
<defs>
<clipPath id="clip0_14853_147">
<rect width="2500" height="1201.8" fill="white"/>
</clipPath>
</defs>
</svg>
