<svg width="2915" height="799" viewBox="0 0 2915 799" fill="none" xmlns="http://www.w3.org/2000/svg">
<path d="M1681.96 583.819H1488.54C1448.54 583.819 1414.8 579.625 1387.34 571.226C1359.87 562.838 1338.2 547.025 1322.34 523.803C1313.6 510.921 1308.04 496.724 1305.62 481.2C1303.21 465.682 1302 445.728 1302 421.358V208.876C1302 178.986 1304.99 153.807 1310.96 133.337C1316.94 112.872 1328.78 94.9329 1346.48 79.5252C1373.59 55.84 1414.97 44 1470.6 44H1822.28V193.01H1467.84V438.261H1660.92V260.614H1828.15V430.83C1828.15 460.009 1825.91 483.263 1821.43 500.613C1816.94 517.951 1806.88 534.206 1791.26 549.362C1776.32 563.606 1760.57 572.91 1744.03 577.272C1727.47 581.635 1706.78 583.819 1681.96 583.819Z" fill="white"/>
<path d="M2031.62 438.258H2216.08V193.702H2031.62V438.258ZM2345.69 81.5953C2357.19 92.6355 2365.7 104.365 2371.23 116.779C2376.75 129.197 2380.24 142.248 2381.74 155.929C2383.24 169.611 2383.99 185.998 2383.99 205.084V431.359C2383.99 460.559 2381.8 483.96 2377.43 501.551C2373.06 519.143 2362.94 535.303 2347.07 550.016C2336.73 560.136 2325.97 567.608 2314.81 572.439C2303.66 577.269 2292.1 580.369 2280.14 581.747C2268.18 583.126 2253.8 583.821 2237.01 583.821H2051.74C2011.94 583.821 1978.07 579.569 1950.13 571.06C1922.18 562.556 1900.5 547.027 1885.09 524.495C1876.58 512.076 1871.12 497.931 1868.71 482.06C1866.29 466.2 1865.09 446.188 1865.09 422.045V209.562C1865.09 179.441 1868.19 154.088 1874.4 133.507C1880.6 112.932 1892.34 95.1666 1909.59 80.2114C1925.23 66.8822 1943.05 57.6207 1963.07 52.4532C1983.08 47.27 2006.54 44.6915 2033.45 44.6915H2236.32C2260.47 44.6915 2280.83 47.1595 2297.39 52.1007C2313.95 57.0525 2330.05 66.8822 2345.69 81.5953Z" fill="white"/>
<path d="M2591.59 47.1011H2912.59V194.732H2589.17V437.568H2915V583.82H2609.18C2570.56 583.82 2537.92 579.626 2511.25 571.228C2484.59 562.835 2463.56 547.027 2448.16 523.805C2438.73 510.691 2432.24 495.978 2428.68 479.65C2425.11 463.321 2423.33 444.809 2423.33 424.117V210.945C2423.33 192.78 2424.54 176.109 2426.95 160.928C2429.37 145.757 2433.91 131.554 2440.57 118.336C2447.24 105.112 2456.31 93.0928 2467.81 82.2842C2481.6 68.7235 2498.55 59.4673 2518.67 54.5208C2538.78 49.5796 2563.08 47.1011 2591.59 47.1011Z" fill="white"/>
<path d="M1402.46 739.853H1402.14C1394.51 752.635 1384.07 757.155 1370.84 757.155C1354.01 757.155 1340.93 751.077 1331.73 740.947C1322.54 730.665 1317.24 716.325 1317.24 699.492C1317.24 680.942 1323.78 664.74 1335.47 653.984C1344.5 645.728 1356.34 641.202 1371.3 641.202C1399.34 641.202 1415.39 656.631 1418.97 678.448H1396.85C1394.35 667.697 1386.09 659.904 1371.77 659.904C1350.74 659.904 1340.3 677.364 1340.3 699.492C1340.3 722.245 1352.29 738.921 1371.46 738.921C1388.75 738.921 1400.12 725.982 1400.12 713.673V713.047H1373.33V695.598H1420.22V754.818H1403.24L1402.46 739.853Z" fill="white"/>
<path d="M1431.46 643.385H1452.65V754.818H1431.46V643.385Z" fill="white"/>
<path d="M1521.67 714.919C1521.67 699.333 1514.34 688.735 1501.41 688.735C1488.33 688.735 1481.16 699.333 1481.16 714.919C1481.16 730.506 1488.33 740.946 1501.41 740.946C1514.34 740.946 1521.67 730.506 1521.67 714.919ZM1459.67 714.919C1459.67 691.076 1476.65 672.685 1501.41 672.68C1526.18 672.68 1543.17 691.076 1543.17 714.919C1543.17 738.762 1526.18 757.159 1501.41 757.159C1476.65 757.159 1459.67 738.762 1459.67 714.919Z" fill="white"/>
<path d="M1606.75 714.919C1606.75 700.112 1600.83 689.829 1588.99 689.829C1575.59 689.829 1570.6 700.58 1570.6 715.388C1570.6 730.038 1577.93 739.389 1589.77 739.389C1600.67 739.389 1606.75 730.348 1606.75 714.919ZM1570.6 744.84H1570.29V754.817H1549.89V643.385H1571.07V684.53H1571.54C1575.9 677.831 1582.76 672.68 1593.82 672.68C1613.91 672.68 1628.24 689.987 1628.24 714.919C1628.24 740.788 1614.54 757.159 1594.44 757.159C1583.22 757.159 1575.28 752.323 1570.6 744.84Z" fill="white"/>
<path d="M1682.95 726.608V714.61C1679.21 716.794 1673.44 718.036 1668.15 719.283C1657.09 721.777 1651.64 724.266 1651.64 731.749C1651.64 739.232 1656.62 741.884 1664.1 741.884C1676.25 741.884 1682.95 734.401 1682.95 726.608ZM1682.79 745.931H1682.48C1678.43 752.008 1672.67 756.687 1658.96 756.687C1642.6 756.687 1631.07 748.114 1631.07 732.217C1631.07 714.61 1645.4 709 1663.16 706.501C1676.41 704.633 1682.48 703.543 1682.48 697.46C1682.48 691.698 1677.96 687.957 1669.08 687.957C1659.11 687.957 1654.29 691.54 1653.66 699.176H1634.82C1635.43 685.152 1645.87 672.838 1669.24 672.838C1693.23 672.838 1702.89 683.594 1702.89 702.296V742.968C1702.89 749.051 1703.82 752.635 1705.69 754.04V754.818H1685.29C1684.04 753.261 1683.26 749.514 1682.79 745.931Z" fill="white"/>
<path d="M1713.5 643.385H1734.69V754.817H1713.5V643.385Z" fill="white"/>
<path d="M1849.83 699.334C1849.83 677.044 1839.85 659.747 1819.45 659.747C1799.04 659.747 1788.6 677.044 1788.6 699.334C1788.6 721.467 1799.04 738.764 1819.45 738.764C1839.86 738.764 1849.83 721.467 1849.83 699.334ZM1765.54 699.334C1765.54 665.982 1786.42 641.203 1819.29 641.203C1852.17 641.203 1872.88 665.982 1872.88 699.334C1872.88 732.686 1852.17 757.308 1819.29 757.308C1786.42 757.308 1765.54 732.686 1765.54 699.334Z" fill="white"/>
<path d="M1880.7 643.384H1901.89V754.817H1880.7V643.384Z" fill="white"/>
<path d="M1912.8 674.863H1933.99V754.817H1912.8V674.863ZM1912.8 643.385H1933.99V662.397H1912.8V643.385Z" fill="white"/>
<path d="M1938.05 674.863H1959.55L1972.32 716.324C1974.66 723.955 1975.9 729.101 1975.9 729.101H1976.21C1976.21 729.101 1977.31 723.955 1979.64 716.324L1992.72 674.863H2013.91L1986.03 754.817H1965.78L1938.05 674.863Z" fill="white"/>
<path d="M2032.93 706.19H2068.45C2067.83 696.061 2061.13 689.051 2051.47 689.051C2040.26 689.051 2034.81 695.75 2032.93 706.19ZM2011.75 714.763C2011.75 691.072 2027.79 672.681 2051.16 672.681C2076.86 672.681 2090.57 692.319 2090.57 720.84H2032.62C2034.18 733.154 2041.04 740.789 2053.03 740.789C2061.29 740.789 2066.12 737.048 2068.45 730.97H2089.33C2086.37 745.152 2073.75 757.155 2053.19 757.155C2026.71 757.155 2011.75 738.606 2011.75 714.763Z" fill="white"/>
<path d="M2117.24 699.492C2117.24 666.45 2137.81 641.202 2170.68 641.202C2198.09 641.202 2214.29 657.562 2216.63 678.758H2194.2C2192.18 667.539 2183.77 660.214 2170.68 660.214C2150.12 660.214 2140.3 677.359 2140.3 699.492C2140.3 722.24 2152.14 738.606 2170.84 738.606C2184.08 738.606 2193.42 730.66 2194.82 718.972H2216.94C2216.32 728.786 2212.12 738.295 2204.64 745.31C2197 752.477 2186.25 757.155 2170.84 757.155C2139.52 757.155 2117.24 732.996 2117.24 699.492Z" fill="white"/>
<path d="M2282.71 714.918C2282.71 699.331 2275.39 688.733 2262.46 688.733C2249.37 688.733 2242.21 699.331 2242.21 714.918C2242.21 730.504 2249.37 740.945 2262.46 740.945C2275.39 740.945 2282.71 730.504 2282.71 714.918ZM2220.71 714.918C2220.71 691.075 2237.69 672.683 2262.46 672.678C2287.23 672.678 2304.21 691.075 2304.21 714.918C2304.21 738.761 2287.23 757.158 2262.46 757.158C2237.69 757.158 2220.71 738.761 2220.71 714.918Z" fill="white"/>
<path d="M2331.34 687.645H2331.8C2336.63 678.604 2342.08 673.931 2351.44 673.931C2353.77 673.931 2355.17 674.084 2356.42 674.552V693.096H2355.95C2342.08 691.697 2332.11 699.022 2332.11 715.855V754.817H2310.93V674.863H2331.34V687.645Z" fill="white"/>
<path d="M2420.14 715.543C2420.14 700.42 2414.84 689.827 2401.76 689.827C2388.52 689.827 2383.22 701.204 2383.22 715.543C2383.22 730.036 2389.92 739.539 2402.54 739.539C2413.29 739.539 2420.14 730.662 2420.14 715.543ZM2362.5 674.861H2382.91V684.838H2383.38C2388.52 677.829 2396 672.683 2406.9 672.683C2428.09 672.683 2441.65 689.985 2441.65 714.917C2441.65 740.786 2427.62 757.157 2407.05 757.157C2395.84 757.157 2388.52 752.631 2384.01 745.775H2383.69V781H2362.5V674.861Z" fill="white"/>
<path d="M2506.47 714.917C2506.47 699.331 2499.15 688.732 2486.22 688.732C2473.13 688.732 2465.97 699.331 2465.97 714.917C2465.97 730.504 2473.13 740.944 2486.22 740.944C2499.15 740.944 2506.47 730.504 2506.47 714.917ZM2444.47 714.917C2444.47 691.074 2461.45 672.677 2486.22 672.677C2510.99 672.677 2527.97 691.074 2527.97 714.917C2527.97 738.76 2510.99 757.157 2486.22 757.157C2461.45 757.157 2444.47 738.76 2444.47 714.917Z" fill="white"/>
<path d="M2555.1 687.644H2555.56C2560.39 678.604 2565.84 673.931 2575.19 673.931C2577.52 673.931 2578.93 674.084 2580.18 674.552V693.096H2579.71C2565.84 691.696 2555.87 699.021 2555.87 715.855V754.816H2534.69V674.862H2555.1V687.644Z" fill="white"/>
<path d="M2631.91 726.606V714.608C2628.17 716.792 2622.4 718.034 2617.11 719.281C2606.05 721.775 2600.6 724.264 2600.6 731.747C2600.6 739.23 2605.58 741.882 2613.06 741.882C2625.21 741.882 2631.91 734.399 2631.91 726.606ZM2631.76 745.929H2631.45C2627.4 752.006 2621.63 756.684 2607.92 756.684C2591.56 756.684 2580.03 748.112 2580.03 732.215C2580.03 714.608 2594.37 708.998 2612.13 706.499C2625.37 704.631 2631.45 703.541 2631.45 697.458C2631.45 691.696 2626.93 687.955 2618.04 687.955C2608.08 687.955 2603.25 691.538 2602.63 699.174H2583.78C2584.39 685.15 2594.84 672.836 2618.2 672.836C2642.19 672.836 2651.85 683.592 2651.85 702.294V742.966C2651.85 749.044 2652.79 752.633 2654.65 754.038V754.816H2634.25C2633 753.259 2632.22 749.512 2631.76 745.929Z" fill="white"/>
<path d="M2655.92 674.862H2666.97V649.929H2687.7V674.862H2701.41V688.891H2687.7V731.278C2687.7 737.203 2690.97 739.229 2695.64 739.229C2698.29 739.229 2701.87 739.071 2701.87 739.071V754.658C2701.87 754.658 2697.05 754.974 2688.63 754.974C2678.35 754.974 2666.97 750.917 2666.97 735.803V688.891H2655.92V674.862Z" fill="white"/>
<path d="M2709.21 674.862H2730.39V754.816H2709.21V674.862ZM2709.21 643.383H2730.39V662.396H2709.21V643.383Z" fill="white"/>
<path d="M2799.1 714.917C2799.1 699.33 2791.78 688.732 2778.85 688.732C2765.76 688.732 2758.6 699.33 2758.6 714.917C2758.6 730.503 2765.76 740.944 2778.85 740.944C2791.78 740.944 2799.1 730.503 2799.1 714.917ZM2737.1 714.917C2737.1 691.074 2754.08 672.677 2778.85 672.677C2803.62 672.677 2820.6 691.074 2820.6 714.917C2820.6 738.76 2803.62 757.156 2778.85 757.156C2754.08 757.156 2737.1 738.76 2737.1 714.917Z" fill="white"/>
<path d="M2848.04 685.771H2848.5C2853.96 677.199 2861.28 672.679 2872.19 672.679C2888.7 672.679 2899.76 685.151 2899.76 702.6V754.812H2878.57V705.72C2878.57 697.148 2873.58 691.07 2864.71 691.07C2855.36 691.07 2848.5 698.553 2848.5 709.462V754.812H2827.32V674.863H2848.04V685.771Z" fill="white"/>
<path d="M583.08 503.297C579.431 509.077 575.867 514.912 572.1 520.615C570.443 523.119 569.366 525.852 568.307 528.597C567.82 529.862 567.458 531.558 568.742 532.562C569.871 533.447 571.214 532.595 572.373 532.093C573.077 531.787 573.686 531.282 574.358 530.902C583.205 525.849 591.053 519.39 599.104 513.23C605.221 508.549 611.323 503.843 617.267 498.948C623.348 493.95 622.994 489.328 616.478 485.179C614.194 483.725 611.903 482.283 609.604 480.845C603.487 477.012 599.163 477.934 595.274 484.002C591.167 490.405 587.142 496.864 583.08 503.297ZM485.214 131.583C483.414 130.011 481.023 129.949 478.731 129.945C467.298 129.915 455.889 130.454 444.496 131.509C433.357 132.538 422.344 134.393 411.353 136.345C405.291 137.418 399.284 139.034 393.842 142.08C390.828 143.77 390.898 144.921 393.86 146.595C397.288 148.524 401.147 149.074 404.922 149.753C425.022 153.367 444.979 157.558 464.623 163.223C470.264 164.85 475.791 167.151 481.779 167.465C486.044 167.69 488.343 166.097 489.361 162.032C491.328 154.186 490.992 146.226 490.121 138.3C489.804 135.404 488.033 133.077 485.214 131.583ZM302.739 460.594C304.927 457.238 304.495 453.8 301.234 450.041C285.944 432.403 270.754 414.687 257.103 395.713C253.738 391.036 250.661 386.122 246.54 382.032C245.558 381.062 244.433 379.952 242.817 380.575C241.326 381.15 241.374 382.633 241.297 383.869C241.097 387.218 241.588 390.53 242.26 393.795C246.064 412.212 251.915 429.998 259.066 447.364C262.091 454.711 264.888 462.195 269.282 468.894C272.488 473.777 276.019 474.729 281.528 472.726C286.748 470.826 291.608 468.255 296.319 465.356C298.728 463.874 301.204 462.505 302.739 460.594ZM768.366 231.45C761.415 227.072 756.781 228.061 752.8 234.35C744.107 248.075 735.444 261.815 726.789 275.562C722.594 282.223 723.291 286.875 729.803 291.467C740.706 299.165 751.73 306.686 762.338 314.804C770.484 321.038 778.893 326.929 786.932 333.299C794.223 339.075 799.115 337.216 803.513 332.83C813.678 322.69 823.455 312.189 833.137 301.596C836.432 297.988 836.49 292.68 833.417 288.907C831.72 286.819 829.942 284.783 828.064 282.858C816.858 271.39 804.79 260.852 792.562 250.516C784.545 243.741 776.074 237.496 768.366 231.45ZM660.686 380.306C653.056 392.4 645.618 404.628 637.719 416.546C632.926 423.772 634.59 429.186 641.663 433.627C648.322 437.807 654.964 442.011 661.612 446.202C671.154 452.218 674.843 452.114 683.322 444.911C694.069 435.778 704.78 426.601 715.259 417.165C725.829 407.649 736.717 398.461 746.591 388.207C752.007 382.581 751.372 378.067 745.048 373.176C739.776 369.1 734.404 365.157 729.106 361.125C719.398 353.744 709.584 346.537 699.386 339.868C692.542 335.39 688.395 336.423 684.001 343.368C676.219 355.673 668.456 367.993 660.686 380.306ZM335.141 307.748C313.981 294.403 292.822 281.054 271.651 267.72C270.348 266.901 269.031 266.031 267.607 265.492C263.607 263.98 260.272 265.828 260.541 270.066C260.663 271.973 260.578 273.876 260.966 275.79C264.851 295.041 272.879 312.672 282.457 329.606C297.05 355.412 314.793 379.004 334.355 401.231C338.321 405.738 341.952 410.596 346.792 414.314C351.213 417.708 354.445 417.774 358.839 414.178C365.624 408.623 371.011 401.725 376.689 395.145C385.732 384.662 394.613 374.02 402.221 362.416C406.442 355.976 405.482 352.118 398.948 347.994C377.685 334.571 356.411 321.163 335.141 307.748ZM365.303 259.332C386.359 272.611 407.408 285.905 428.48 299.165C435.438 303.543 440.187 302.588 444.323 295.661C448.329 288.948 451.484 281.773 454.937 274.758C461.007 262.438 466.202 249.757 471.138 236.965C472.603 233.169 473.079 229.204 470.013 225.681C468.106 223.49 465.372 222.801 462.881 222.052C437.523 214.431 411.869 207.965 385.585 204.494C360.654 201.2 335.661 200.171 310.705 204.509C306.761 205.192 302.872 206.254 299.407 208.231C295.412 210.514 295.275 212.904 298.348 216.246C299.85 217.876 301.573 219.16 303.436 220.333C324.068 233.317 344.682 246.33 365.303 259.332ZM449.588 607.941C452.72 602.976 455.336 598.838 457.948 594.695C458.018 594.585 458.085 594.478 458.151 594.367C460.66 590.066 459.981 584.755 456.196 581.841C452.643 579.104 449.171 576.271 445.337 573.87C440.009 570.535 434.881 566.858 429.841 563.099C421.016 556.512 412.297 549.78 403.582 543.045C397.199 538.109 390.783 533.207 384.588 528.036C375.549 520.493 366.801 512.599 357.732 505.093C351.737 500.132 348.434 500.176 341.634 504.204C332.126 509.837 322.692 515.605 313.044 520.987C305.381 525.258 305.831 529.53 310.041 535.686C317.08 545.973 325.22 555.409 333.429 564.759C347.645 580.952 362.853 596.152 379.065 610.383C387.249 617.568 395.749 624.355 404.08 631.345C409.29 635.716 415.083 638.032 421.824 634.336C426.557 631.74 431.173 628.981 435.637 625.934C442.544 621.227 445.57 613.607 449.588 607.941ZM691.487 224.586C696.025 217.39 700.622 210.23 705.086 202.989C707.983 198.287 707.451 195.284 703.791 191.234C701.6 188.807 698.549 188.117 695.914 186.586C685.137 180.323 673.736 175.329 662.369 170.338C644.179 162.345 625.573 155.385 606.527 149.646C591.285 145.05 575.885 141.077 560.253 138.056C551.213 136.308 547.597 139.38 547.442 148.303C547.261 158.712 546.487 169.084 544.963 179.39C543.786 187.35 546.291 191.522 553.925 194.605C557.607 196.092 561.19 197.818 564.824 199.423C576.313 204.483 587.644 209.865 598.975 215.272C610.423 220.739 621.64 226.659 632.919 232.439C642.851 237.529 652.411 243.346 662.11 248.882C669.523 253.113 674.164 252.018 678.695 244.862C682.968 238.112 687.225 231.347 691.487 224.586ZM504.662 414.661C491.468 406.339 478.281 398.003 465.073 389.7C459.819 386.399 454.76 387.222 451.093 391.998C444.463 400.637 437.962 409.368 431.199 417.91C422.122 429.378 412.415 440.274 402.531 451.019C396.011 458.108 395.934 462.553 403.036 468.871C412.319 477.13 422.034 484.872 431.73 492.644C443.334 501.954 455.332 510.718 467.227 519.633C472.574 523.643 478.414 526.889 483.583 531.16C489.42 535.988 495.515 535.111 499.164 529.345C515.159 504.075 531.12 478.783 547.044 453.468C550.859 447.408 549.756 443.107 543.594 439.216C530.622 431.023 517.642 422.842 504.662 414.661ZM534.58 366.086C547.446 374.197 560.282 382.364 573.192 390.405C580.014 394.658 584.928 393.459 589.142 386.783C604.557 362.368 619.964 337.95 635.368 313.528C640.268 305.756 639.412 301.987 631.572 297.066C619.599 289.556 606.833 283.47 594.536 276.543C589.518 273.714 584.301 271.228 579.103 268.734C569.982 264.367 560.861 259.989 551.626 255.869C546.376 253.526 541.266 250.753 535.61 249.417C531.061 248.344 526.943 250.362 525.095 254.489C524.312 256.241 523.615 258.034 522.929 259.826C514.727 281.272 505.263 302.134 494.15 322.229C488.025 333.306 488.97 337.323 499.578 344.014C511.244 351.373 522.91 358.731 534.58 366.086ZM930.195 178.258C942.765 159.542 952.741 140.73 960.84 120.96C965.67 109.175 969.271 97.0173 970.123 84.1627C971.115 69.154 964.744 60.8695 950.07 58.1067C934.751 55.2223 919.535 56.8563 904.5 59.5785C891.096 62.0055 877.869 65.388 864.793 69.4085C843.287 76.0221 822.337 84.0631 801.668 92.864C784.298 100.26 767.285 108.456 750.398 116.895C743.281 120.454 736.16 124.051 729.305 128.079C723.523 131.476 723.615 135.755 729.124 139.244C734.662 142.752 740.517 145.78 746.052 149.229C760.578 158.284 775.292 167.041 789.283 176.989C801.004 185.321 812.575 193.831 823.798 202.783C839.638 215.413 854.4 229.281 869.018 243.291C874.036 248.097 878.175 248.311 882.894 243.254C893.59 231.797 902.441 218.858 911.599 206.206C918.373 196.841 925.332 187.534 930.195 178.258ZM145.014 637.663C143.32 641.614 141.501 645.45 139.465 649.161C132.96 660.993 127.3 673.184 122.865 685.917C118.969 697.108 115.818 708.524 116.681 720.556C117.242 728.387 120.585 734.779 128.086 738.033C137.122 741.95 146.766 742.477 156.451 742.009C174.372 741.138 191.856 737.844 209.157 733.035C224.151 728.863 238.898 724.027 253.461 718.627C278.65 709.28 303.067 698.141 327.238 686.452C334.289 683.044 341.269 679.481 348.202 675.833C356.514 671.458 357.153 666.508 350.176 660.451C339.233 650.957 328.514 641.238 318.15 631.105C298.559 611.954 280.65 591.357 264.231 569.451C254.981 557.109 246.528 544.229 238.238 531.234C234.202 524.912 230.165 524.506 224.856 529.862C221.709 533.038 218.801 536.472 215.931 539.906C203.014 555.339 190.624 571.203 178.692 587.399C170.693 598.259 163.277 609.549 155.736 620.74C152.005 626.277 148.578 632.016 145.014 637.663ZM108.454 590.24C113.18 581.276 120.187 572.306 126.706 563.073C136.454 549.267 146.667 535.763 157.304 522.581C170.261 506.513 183.378 490.604 197.254 475.33C203.641 468.296 204.025 460.701 200.449 452.125C195.797 440.968 192.897 429.227 189.676 417.578C184.691 399.538 181.821 381.161 180.223 362.604C176.914 324.125 180.843 286.399 193.602 249.827C198.76 235.039 205.478 220.964 213.326 207.309C218.093 199.024 223.613 191.311 228.966 183.521C235.478 174.049 243.433 165.595 251.565 157.377C266.832 141.94 283.966 128.886 302.543 117.799C320.785 106.91 340.148 98.3562 360.322 91.5841C375.125 86.6156 390.208 82.7242 405.505 79.836C430.678 75.0852 456.144 73.0933 481.768 73.204C496.947 73.2667 512.089 74.0708 527.168 75.7085C560.201 79.3012 592.617 85.9074 624.314 95.9402C631.162 98.1054 638.036 100.212 644.84 102.517C651.853 104.896 657.978 102.646 663.944 99.2415C694.073 82.0344 724.756 65.9117 756.239 51.2903C781.073 39.7562 806.332 29.2992 832.192 20.3692C844.202 16.2232 856.473 12.826 868.778 9.53585C889.244 4.06942 909.95 0.502591 931.106 0.0452106C947.893 -0.316268 964.452 1.41366 980.184 8.00141C1000.58 16.5441 1015.01 30.7598 1022.35 51.8399C1028.5 69.5081 1027.93 87.4307 1024.43 105.464C1020.94 123.464 1014.46 140.413 1006.75 156.997C999.581 172.411 991.427 187.232 982.21 201.503C976.155 210.883 970.636 220.624 964.227 229.75C956.785 240.34 949.192 250.834 941.219 261.058C935.78 268.03 930.394 275.056 924.907 281.995C918.55 290.032 912.02 297.951 905.26 305.653C895.291 317.017 885.359 328.415 875.106 339.532C863.284 352.35 851.319 365.024 839.106 377.473C822.216 394.691 804.875 411.452 787.286 427.954C769.599 444.549 751.616 460.819 733.275 476.691C713.561 493.747 693.726 510.663 673.345 526.918C649.256 546.128 624.934 565.039 600.118 583.316C580.781 597.554 561.238 611.493 541.436 625.063C525.866 635.738 510.111 646.151 494.169 656.287C477.673 666.773 461.177 677.267 444.3 687.134C421.676 700.365 398.867 713.257 375.56 725.285C354.777 736.011 333.835 746.391 312.384 755.701C289.885 765.461 267.09 774.435 243.699 781.923C227.107 787.238 210.278 791.624 193.207 794.77C168.446 799.329 143.505 801.361 118.666 794.859C98.942 789.698 82.564 779.507 71.4215 762.067C64.1383 750.666 60.8251 737.867 59.9691 724.462C58.5043 701.505 64.356 679.872 72.5764 658.784C77.4171 646.365 83.1507 634.34 89.6369 622.644C95.4996 612.076 101.156 601.405 108.454 590.24Z" fill="white"/>
<path d="M915.638 408.529C912.989 406.309 909.953 406.759 907.016 408.035C902.666 409.931 898.371 411.948 894.32 414.46C885.742 419.783 885.066 424.534 891.792 432.099C903.13 444.843 913.812 458.118 923.855 471.913C928.297 478.018 932.389 484.403 937.746 489.821C938.768 490.854 939.698 491.529 941.063 491.068C942.45 490.603 942.262 489.205 942.417 488.113C942.565 487.103 942.587 486.055 942.494 485.041C941.904 478.39 940.458 471.946 938.753 465.462C934.248 448.288 928.26 431.682 921.069 415.489C919.881 412.815 918.627 410.049 915.638 408.529ZM703.875 710.378C703.51 711.252 702.72 712.396 702.569 713.617C701.831 719.474 700.95 725.346 701.433 731.266C702.053 738.839 704.872 741.395 712.509 741.377C735.845 741.321 758.854 738.485 781.511 732.923C784.588 732.166 787.573 730.805 790.403 729.341C792.982 728.01 792.927 726.036 790.303 724.848C787.994 723.801 785.485 723.045 782.987 722.591C766.45 719.581 749.951 716.435 733.698 712.09C727.256 710.367 720.807 708.674 714.32 707.121C709.225 705.897 706.019 706.929 703.875 710.378ZM822.838 615.32C803.213 602.942 783.589 590.563 763.956 578.188C757.068 573.846 752.972 574.743 748.659 581.795C744.372 588.8 741.085 596.328 737.465 603.687C731.75 615.306 726.363 627.05 722.26 639.344C720.287 645.26 722.331 649.561 728.182 651.406C752.113 658.949 776.567 664.15 801.431 667.351C823.281 670.162 845.193 671.198 867.098 667.949C872.791 667.1 878.646 666.392 883.834 663.607C888.582 661.062 888.678 657.506 884.31 654.142C883.395 653.434 882.373 652.866 881.392 652.247C861.874 639.938 842.356 627.629 822.838 615.32ZM853.34 567.118C872.529 579.221 891.719 591.326 910.915 603.417C912.325 604.303 913.79 605.059 915.328 605.752C921.409 608.493 923.973 605.317 923.36 598.84C922.958 594.602 921.822 590.57 920.66 586.476C916.147 570.552 909.277 555.662 901.149 541.35C892.135 525.482 882.045 510.274 870.729 495.948C862.94 486.085 855.21 476.144 846.485 467.059C841.138 461.493 837.294 461.135 831.604 466.421C823.709 473.746 816.872 482.086 810.017 490.374C804.228 497.379 798.531 504.468 793.023 511.694C787.153 519.392 786.341 524.674 795.771 530.808C796.528 531.303 797.295 531.775 798.059 532.254C816.485 543.877 834.914 555.496 853.34 567.118ZM459.028 733.576C457.94 732.882 456.848 732.2 455.759 731.506C449.48 727.508 449.207 722.871 455.058 717.999C459.238 714.52 464.219 712.329 468.876 709.615C476.207 705.336 483.527 701.035 490.784 696.631C497.986 692.267 505.011 693.595 512.103 696.885C536.107 708.036 560.845 717.228 586.315 724.439C600.778 728.533 615.396 731.978 630.18 734.719C631.316 734.929 632.464 735.114 633.615 735.18C641.297 735.641 644.016 733.498 644.577 725.756C645.292 715.881 646.207 706.04 647.532 696.225C649.059 684.901 645.584 683.592 637.928 680.25C622.428 673.482 606.936 666.695 591.594 659.587C587.897 657.875 584.119 656.204 580.67 653.888C574.102 649.477 573.515 644.198 579.806 639.34C586.912 633.852 594.376 628.828 601.7 623.62C604.63 621.536 607.688 619.625 610.522 617.416C618.277 611.363 626.092 612.469 634.342 616.479C641.245 619.828 648.336 622.9 655.586 625.386C662.973 627.917 665.98 626.01 668.998 618.795C675.624 602.956 682.147 587.073 690.084 571.81C693.342 565.547 696.422 559.21 700.086 553.157C703.001 548.347 706.694 544.379 711.018 540.841C746.099 512.152 780.478 482.665 813.714 451.836C844.577 423.209 874.396 393.557 903.237 362.916C911.491 354.145 919.354 345.001 927.662 336.281C933.426 330.228 938.362 330.527 943.325 337.244C950.597 347.092 955.969 358.099 961.61 368.914C969.808 384.646 976.926 400.872 983.087 417.507C990.341 437.093 995.953 457.177 999.657 477.704C1003.47 498.825 1005.37 520.178 1004.72 541.701C1003.8 572.12 998.395 601.647 987.223 630.019C982.471 642.092 976.52 653.538 970.081 664.847C952.814 695.174 929.562 719.957 901.618 740.392C878.348 757.411 852.724 770.096 825.362 779.295C813.035 783.437 800.605 787.24 787.898 789.841C756.839 796.196 725.445 799.14 693.699 798.221C660.833 797.266 628.461 792.91 596.424 785.547C567.461 778.889 539.287 769.849 511.807 758.606C496.857 752.494 482.11 745.932 467.809 738.371C464.861 736.81 461.884 735.305 459.028 733.576Z" fill="white"/>
<path d="M1162 346.81H1146.65V300.124H1146.33L1129.37 346.81H1118.34L1101.39 300.124H1101.07V346.81H1085.72V280.94H1107.46L1123.94 324.269L1140.41 280.94H1162V346.81ZM1077.24 293.732H1058.53V346.81H1042.22V293.732H1023.5V280.94H1077.24V293.732Z" fill="white"/>
<path d="M221.112 240.542C191.478 228.521 144.307 166.771 165.374 179.327C186.032 191.632 191.625 196.213 170.942 169.729C143.074 134.046 123.782 105.313 117.723 87.1095C107.736 57.1142 114.757 65.6163 114.764 63.4401L172.373 63.6762L143.569 63.5581L172.373 63.5102C172.403 66.8926 173.915 146.61 252.086 178.309L221.112 240.542Z" fill="white"/>
<path d="M45.6449 176.232C68.0022 165.272 99.539 154.971 130.96 162.984C162.345 170.987 185.415 195.178 200.096 215.543C207.581 225.926 213.244 235.814 217.04 243.104C218.942 246.758 220.388 249.786 221.371 251.93C221.864 253.003 222.243 253.859 222.504 254.462C222.634 254.762 222.734 255 222.806 255.172C222.843 255.258 222.874 255.328 222.896 255.38C222.906 255.406 222.915 255.43 222.923 255.448C222.926 255.456 222.928 255.463 222.931 255.469L222.936 255.478C222.936 255.478 222.939 255.488 211.303 260.265L219.358 269.92L219.353 269.928C219.347 269.933 219.339 269.938 219.331 269.945C219.317 269.956 219.298 269.97 219.277 269.988C219.234 270.024 219.176 270.072 219.104 270.131C218.96 270.249 218.759 270.413 218.504 270.617C217.995 271.026 217.268 271.601 216.34 272.314C214.483 273.739 211.811 275.721 208.449 278.038C201.742 282.662 192.189 288.684 180.796 294.27C158.438 305.23 126.899 315.534 95.4757 307.521C64.0923 299.519 41.0252 275.326 26.3449 254.962C18.8604 244.579 13.1968 234.691 9.40137 227.4C7.49854 223.745 6.05053 220.716 5.06685 218.571C4.57493 217.499 4.19836 216.645 3.93728 216.043C3.8067 215.741 3.70453 215.502 3.63192 215.329C3.59569 215.243 3.5672 215.174 3.54544 215.121C3.5347 215.096 3.52562 215.074 3.51842 215.057C3.51479 215.048 3.51033 215.039 3.50761 215.032L3.50491 215.024L15.1384 210.24C7.16082 200.691 7.08008 200.582 7.08008 200.582L7.08819 200.576C7.09356 200.572 7.10003 200.566 7.1071 200.56C7.1218 200.548 7.14199 200.532 7.16385 200.514C7.20749 200.478 7.26514 200.429 7.3368 200.371C7.48082 200.253 7.67969 200.089 7.93401 199.885C8.44304 199.476 9.17227 198.904 10.1013 198.191C11.9581 196.766 14.6296 194.781 17.9921 192.463C24.699 187.84 34.252 181.817 45.6449 176.232ZM39.5133 229.434C41.6685 232.895 44.0823 236.546 46.7556 240.254C60.2569 258.984 78.9118 277.339 101.694 283.147C124.441 288.948 149.262 281.716 169.719 271.687C173.816 269.679 177.65 267.592 181.164 265.554L39.5133 229.434ZM226.438 264.009L219.366 269.915L211.303 260.265L222.939 255.486L226.438 264.009ZM124.742 187.355C101.997 181.554 77.1788 188.786 56.7217 198.815C52.6261 200.822 48.7906 202.907 45.2774 204.945L186.922 241.067C184.768 237.608 182.358 233.957 179.685 230.25C166.606 212.106 148.688 194.312 126.866 187.935L124.742 187.355ZM15.1384 210.24L3.50221 215.016L0 206.493L7.07468 200.587L15.1384 210.24Z" fill="white"/>
</svg>
