<svg width="323" height="96" viewBox="0 0 323 96" fill="none" xmlns="http://www.w3.org/2000/svg">
<path d="M22.0547 48.9766C23.2176 61.3008 33.4394 70.9885 45.9912 71.3066L46.6289 71.3145V72.2578C46.6289 85.1339 36.1904 95.5723 23.3145 95.5723C10.4386 95.5723 1.12566e-06 85.1339 0 72.2578C-5.6857e-08 59.8044 9.76452 49.631 22.0547 48.9766ZM72.6855 0C85.5614 6.83298e-06 96 10.4384 96 23.3145C95.9999 36.1905 85.5614 46.6289 72.6855 46.6289H71.3145C71.3145 33.9328 61.7296 23.4767 49.4014 22.0986C50.0337 9.78755 60.2174 -2.18001e-06 72.6855 0Z" fill="#9CA3AF"/>
<path d="M79.333 50.335C88.9703 53.1969 96 62.1194 96 72.6855C96 85.5614 85.5616 96 72.6855 96C62.1194 95.9999 53.1969 88.9701 50.335 79.333C65.5512 77.6276 77.6276 65.5512 79.333 50.335ZM72.6855 49.3711C74.035 49.3711 75.3578 49.4869 76.6445 49.707C75.205 63.912 63.912 75.205 49.707 76.6445C49.4869 75.3577 49.3711 74.0351 49.3711 72.6855V49.3711H72.6855ZM45.6074 16.4756C46.2701 18.6384 46.6289 20.9345 46.6289 23.3145V46.6289H23.3145C20.9346 46.6289 18.6384 46.2701 16.4756 45.6074C17.0028 29.756 29.756 17.0028 45.6074 16.4756ZM23.3145 0C32.7929 6.64643e-05 40.9498 5.65691 44.5947 13.7783C28.0367 14.7878 14.7878 28.0367 13.7783 44.5947C5.65679 40.9498 -1.1303e-07 32.7929 0 23.3145C8.98006e-06 10.4386 10.4384 -1.53546e-07 23.3145 0Z" fill="#F9FAFB"/>
<path d="M119.443 30.0909H127.182L137.545 55.3864H137.955L148.318 30.0909H156.057V65H149.989V41.017H149.665L140.017 64.8977H135.483L125.835 40.9659H125.511V65H119.443V30.0909ZM166.506 74.8182C165.665 74.8182 164.886 74.75 164.17 74.6136C163.466 74.4886 162.903 74.3409 162.483 74.1705L163.915 69.3636C164.813 69.625 165.614 69.75 166.318 69.7386C167.023 69.7273 167.642 69.5057 168.176 69.0739C168.722 68.6534 169.182 67.9489 169.557 66.9602L170.085 65.5455L160.591 38.8182H167.136L173.17 58.5909H173.443L179.494 38.8182H186.057L175.574 68.1705C175.085 69.5568 174.438 70.7443 173.631 71.733C172.824 72.733 171.835 73.4943 170.665 74.017C169.506 74.5511 168.119 74.8182 166.506 74.8182ZM212.605 30.0909H218.929V52.8977C218.929 55.3977 218.338 57.5966 217.156 59.4943C215.986 61.392 214.338 62.875 212.213 63.9432C210.088 65 207.605 65.5284 204.764 65.5284C201.912 65.5284 199.423 65 197.298 63.9432C195.173 62.875 193.526 61.392 192.355 59.4943C191.185 57.5966 190.599 55.3977 190.599 52.8977V30.0909H196.923V52.3693C196.923 53.8239 197.241 55.1193 197.878 56.2557C198.526 57.392 199.435 58.2841 200.605 58.9318C201.776 59.5682 203.162 59.8864 204.764 59.8864C206.366 59.8864 207.753 59.5682 208.923 58.9318C210.105 58.2841 211.014 57.392 211.651 56.2557C212.287 55.1193 212.605 53.8239 212.605 52.3693V30.0909ZM231.7 49.6591V65H225.53V38.8182H231.428V43.267H231.734C232.337 41.8011 233.297 40.6364 234.615 39.7727C235.945 38.9091 237.587 38.4773 239.541 38.4773C241.348 38.4773 242.922 38.8636 244.263 39.6364C245.615 40.4091 246.661 41.5284 247.399 42.9943C248.149 44.4602 248.518 46.2386 248.507 48.3295V65H242.337V49.2841C242.337 47.5341 241.882 46.1648 240.973 45.1761C240.075 44.1875 238.831 43.6932 237.24 43.6932C236.161 43.6932 235.2 43.9318 234.359 44.4091C233.53 44.875 232.876 45.5511 232.399 46.4375C231.933 47.3239 231.7 48.3977 231.7 49.6591ZM254.78 65V38.8182H260.95V65H254.78ZM257.882 35.1023C256.905 35.1023 256.064 34.7784 255.359 34.1307C254.655 33.4716 254.303 32.6818 254.303 31.7614C254.303 30.8295 254.655 30.0398 255.359 29.392C256.064 28.733 256.905 28.4034 257.882 28.4034C258.871 28.4034 259.712 28.733 260.405 29.392C261.109 30.0398 261.462 30.8295 261.462 31.7614C261.462 32.6818 261.109 33.4716 260.405 34.1307C259.712 34.7784 258.871 35.1023 257.882 35.1023ZM278.716 65.5114C276.159 65.5114 273.943 64.9489 272.068 63.8239C270.193 62.6989 268.739 61.125 267.705 59.1023C266.682 57.0795 266.17 54.7159 266.17 52.0114C266.17 49.3068 266.682 46.9375 267.705 44.9034C268.739 42.8693 270.193 41.2898 272.068 40.1648C273.943 39.0398 276.159 38.4773 278.716 38.4773C281.273 38.4773 283.489 39.0398 285.364 40.1648C287.239 41.2898 288.688 42.8693 289.71 44.9034C290.744 46.9375 291.261 49.3068 291.261 52.0114C291.261 54.7159 290.744 57.0795 289.71 59.1023C288.688 61.125 287.239 62.6989 285.364 63.8239C283.489 64.9489 281.273 65.5114 278.716 65.5114ZM278.75 60.5682C280.136 60.5682 281.295 60.1875 282.227 59.4261C283.159 58.6534 283.852 57.6193 284.307 56.3239C284.773 55.0284 285.006 53.5852 285.006 51.9943C285.006 50.392 284.773 48.9432 284.307 47.6477C283.852 46.3409 283.159 45.3011 282.227 44.5284C281.295 43.7557 280.136 43.3693 278.75 43.3693C277.33 43.3693 276.148 43.7557 275.205 44.5284C274.273 45.3011 273.574 46.3409 273.108 47.6477C272.653 48.9432 272.426 50.392 272.426 51.9943C272.426 53.5852 272.653 55.0284 273.108 56.3239C273.574 57.6193 274.273 58.6534 275.205 59.4261C276.148 60.1875 277.33 60.5682 278.75 60.5682ZM302.669 49.6591V65H296.499V38.8182H302.396V43.267H302.703C303.305 41.8011 304.266 40.6364 305.584 39.7727C306.913 38.9091 308.555 38.4773 310.51 38.4773C312.317 38.4773 313.891 38.8636 315.232 39.6364C316.584 40.4091 317.629 41.5284 318.368 42.9943C319.118 44.4602 319.487 46.2386 319.476 48.3295V65H313.305V49.2841C313.305 47.5341 312.851 46.1648 311.942 45.1761C311.044 44.1875 309.8 43.6932 308.209 43.6932C307.129 43.6932 306.169 43.9318 305.328 44.4091C304.499 44.875 303.845 45.5511 303.368 46.4375C302.902 47.3239 302.669 48.3977 302.669 49.6591Z" fill="white"/>
</svg>
